<?xml version="1.0" standalone="no"?>
<!DOCTYPE svg PUBLIC "-//W3C//DTD SVG 20010904//EN"
 "http://www.w3.org/TR/2001/REC-SVG-20010904/DTD/svg10.dtd">
<svg version="1.0" xmlns="http://www.w3.org/2000/svg"
 width="1285.000000pt" height="1302.000000pt" viewBox="0 0 1285.000000 1302.000000"
 preserveAspectRatio="xMidYMid meet">
<metadata>
Created by potrace 1.12, written by Peter Selinger 2001-2015
</metadata>
<g transform="translate(0.000000,1302.000000) scale(0.100000,-0.100000)"
fill="#000000" stroke="none">
<path d="M1905 12791 c-16 -5 -64 -14 -105 -21 -41 -7 -145 -30 -230 -52 -270
-67 -444 -168 -640 -371 -129 -135 -276 -410 -375 -702 -50 -148 -118 -414
-144 -562 -27 -153 -53 -443 -41 -443 3 0 17 30 31 68 40 105 185 315 297 429
95 97 99 100 182 126 46 14 86 24 88 22 2 -2 -1 -35 -8 -72 -7 -37 -17 -128
-24 -202 -10 -115 -9 -153 6 -280 9 -80 22 -168 27 -196 6 -27 15 -77 20 -110
15 -83 40 -215 47 -245 5 -20 16 4 54 110 82 229 95 264 111 290 95 154 208
308 248 336 9 7 27 22 41 34 14 12 41 34 60 49 34 25 71 56 94 76 40 36 90 66
134 80 49 16 74 33 33 22 -29 -7 -15 16 18 31 33 15 46 48 24 61 -14 7 -14 11
1 33 9 13 13 28 9 32 -4 4 0 4 10 0 13 -5 18 1 23 25 7 33 88 126 102 117 5
-3 7 6 4 19 -2 14 0 25 6 25 6 0 12 10 14 23 2 15 10 22 25 21 12 0 20 3 17 8
-10 15 8 31 18 17 7 -10 7 -7 3 8 -5 17 0 25 25 38 17 9 28 20 25 24 -2 5 2
14 10 21 8 7 15 19 15 26 0 8 3 14 8 14 12 0 72 58 72 69 0 6 5 11 10 11 6 0
10 7 10 15 0 8 6 12 13 10 14 -5 67 38 67 55 0 5 11 10 25 10 14 0 24 3 24 8
-3 20 2 32 12 27 6 -4 13 2 16 14 3 12 13 21 24 21 11 0 22 6 25 14 3 8 18 18
32 21 32 7 72 38 72 55 0 8 11 10 33 6 17 -3 39 -1 47 5 12 8 9 9 -9 4 -20 -6
-23 -4 -18 10 4 9 7 19 7 21 0 2 7 4 15 4 8 0 15 4 15 10 0 5 18 14 40 20 22
6 40 15 40 20 0 5 10 9 22 7 15 -1 24 5 29 23 4 16 7 19 8 8 1 -10 8 -18 17
-18 10 0 14 6 10 15 -3 10 3 17 22 21 15 4 35 13 46 20 10 7 25 10 32 7 8 -3
18 4 23 18 7 18 10 19 10 7 1 -24 11 -23 49 6 18 13 59 29 91 36 44 9 58 16
54 26 -4 11 5 14 44 13 30 -1 59 4 74 13 13 9 45 19 72 23 26 3 47 9 47 13 0
7 -298 142 -313 142 -4 0 -37 14 -73 30 -67 32 -103 47 -117 49 -4 0 -20 7
-36 15 -15 8 -39 17 -52 20 -13 3 -62 18 -109 34 -47 17 -103 33 -125 37 -42
8 -52 10 -100 19 -16 2 -55 10 -85 16 -72 15 -90 17 -185 25 -44 4 -91 8 -105
10 -86 11 -159 13 -185 6z"/>
<path d="M5520 12624 c-25 -5 -134 -30 -270 -64 -41 -10 -93 -21 -115 -25 -48
-8 -271 -79 -335 -107 -102 -44 -254 -126 -259 -139 -3 -9 2 -8 13 4 20 20 22
20 46 7 13 -7 19 -6 24 5 3 8 13 14 23 14 17 -1 17 -2 1 -6 -16 -4 -16 -6 -3
-20 9 -8 25 -13 35 -10 12 3 24 -1 30 -11 5 -10 10 -12 10 -4 0 6 5 12 11 12
5 0 7 -4 4 -10 -3 -5 -1 -10 5 -10 6 0 9 -4 6 -9 -3 -4 5 -6 17 -4 23 4 91
-20 102 -36 3 -6 12 -8 20 -4 9 3 15 -1 15 -11 0 -10 9 -16 24 -16 14 0 28 -4
31 -10 3 -5 15 -10 26 -10 10 0 19 -4 19 -10 0 -5 -5 -10 -11 -10 -6 0 -4 -7
5 -15 16 -17 30 -20 21 -6 -3 5 -1 12 5 16 12 8 66 -20 73 -38 3 -8 22 -18 42
-21 26 -5 35 -12 33 -24 -2 -12 4 -17 22 -17 15 0 26 -7 28 -18 2 -9 9 -17 16
-17 7 0 25 -9 39 -20 14 -11 35 -20 46 -20 14 0 21 -6 21 -19 0 -11 5 -23 10
-26 6 -4 8 -10 6 -14 -3 -4 10 -14 29 -21 19 -8 35 -20 35 -28 0 -8 6 -12 15
-8 10 3 20 -5 31 -25 13 -26 20 -30 41 -24 20 5 24 3 20 -9 -4 -11 11 -32 43
-62 28 -26 50 -51 50 -57 0 -5 7 -15 15 -21 9 -6 17 -21 17 -32 2 -15 7 -20
20 -16 12 3 21 -4 28 -22 5 -14 14 -26 20 -26 6 0 17 -15 25 -34 8 -18 22 -36
31 -40 9 -3 14 -12 11 -20 -4 -9 3 -16 17 -20 12 -3 28 -17 36 -30 7 -14 18
-23 23 -19 6 4 7 1 2 -7 -6 -10 -13 -6 -27 13 -11 15 -26 27 -34 27 -21 0 -17
-8 19 -43 19 -18 32 -38 30 -45 -3 -6 -8 -10 -13 -7 -5 3 -7 -3 -6 -12 2 -10
6 -17 9 -15 4 1 12 2 18 2 5 0 7 5 4 10 -3 6 -2 10 4 10 18 0 41 -12 41 -22 0
-5 -4 -6 -10 -3 -5 3 -18 1 -27 -5 -17 -11 -17 -11 -1 -6 11 3 22 -2 29 -15 6
-12 17 -18 25 -15 9 3 12 1 9 -4 -3 -6 0 -10 9 -10 8 0 16 4 18 9 2 5 10 2 18
-7 13 -14 12 -15 -2 -9 -12 4 -15 2 -11 -9 3 -7 9 -14 13 -14 6 0 125 -82 155
-107 6 -5 37 -31 70 -57 33 -26 69 -56 80 -65 36 -31 127 -133 151 -169 28
-41 28 -45 9 83 -41 286 -152 490 -359 660 -56 46 -59 59 -8 51 36 -7 60 -14
147 -41 22 -7 74 -23 115 -36 154 -46 653 -293 728 -359 26 -22 82 -61 82 -57
0 22 -169 350 -189 367 -3 3 -15 22 -25 43 -11 20 -52 67 -93 103 -95 86 -96
108 -4 63 24 -11 52 -22 62 -24 47 -9 374 -168 543 -264 85 -48 247 -163 294
-208 7 -6 45 -39 85 -72 39 -33 92 -85 117 -116 95 -118 93 -117 54 -25 -19
47 -41 99 -47 115 -6 17 -30 58 -53 91 -23 34 -43 66 -45 70 -8 19 -124 189
-131 192 -5 2 -8 8 -8 14 0 6 -13 27 -30 48 -16 21 -30 41 -30 44 0 4 -5 12
-10 19 -6 7 -25 33 -44 60 -31 45 -101 124 -233 264 -56 59 -264 236 -352 298
-23 17 -61 45 -84 62 -23 18 -45 33 -49 33 -4 0 -24 12 -45 26 -31 21 -211
111 -288 144 -76 32 -357 118 -406 124 -77 10 -113 15 -149 21 -19 3 -53 7
-75 9 -63 8 -367 15 -395 10z"/>
<path d="M8845 10707 c-95 -32 -173 -88 -216 -155 -15 -24 -43 -51 -61 -60
-26 -14 -37 -28 -51 -71 -10 -30 -26 -66 -36 -80 -9 -14 -23 -45 -29 -68 -19
-66 -71 -108 -195 -157 -21 -9 -36 -20 -32 -26 3 -6 0 -7 -9 -4 -10 4 -27 -7
-46 -27 -38 -42 -38 -50 0 -39 26 7 42 3 103 -29 l72 -39 3 -426 c2 -375 4
-426 18 -426 12 0 14 -7 8 -35 -7 -41 2 -58 75 -131 31 -32 54 -64 57 -84 8
-39 34 -56 104 -65 170 -24 271 22 435 195 50 52 107 112 128 134 24 25 37 48
37 66 0 15 6 33 14 39 8 6 19 32 25 58 7 27 24 57 42 73 16 16 29 37 29 48 0
31 19 74 29 67 5 -3 12 3 15 12 4 17 19 164 18 180 -1 5 -26 13 -57 19 -51 10
-58 10 -83 -10 -41 -32 -50 -47 -62 -106 -20 -96 -22 -100 -40 -100 -14 0 -18
-12 -23 -72 -4 -49 -11 -74 -22 -80 -9 -6 -15 -23 -15 -43 0 -22 -7 -41 -19
-51 -10 -9 -35 -31 -55 -49 -19 -18 -38 -30 -41 -27 -3 3 -5 -2 -5 -11 0 -28
-22 -66 -42 -72 -12 -4 -18 -16 -18 -35 0 -34 -61 -93 -127 -122 -49 -22 -97
-19 -144 9 -57 34 -137 213 -147 331 -2 34 -9 62 -13 62 -5 0 -9 106 -9 235 0
204 2 234 15 229 11 -5 15 2 15 27 1 56 18 113 40 131 11 9 20 23 20 31 0 11
44 16 243 26 133 6 297 10 364 9 114 -3 124 -2 144 19 12 12 25 39 28 60 9 55
-20 257 -40 279 -9 11 -20 38 -24 61 -6 36 -21 58 -102 143 -53 55 -100 97
-106 93 -5 -3 -7 -1 -4 4 4 6 -12 23 -36 38 -49 33 -113 41 -172 22z m88 -163
c69 -35 127 -85 127 -109 0 -39 11 -55 37 -55 l26 0 -7 -70 c-12 -123 -35
-165 -93 -176 -19 -4 -100 -1 -181 6 -130 11 -149 15 -164 34 -21 26 -22 56
-3 119 8 26 12 61 8 78 -4 23 -2 28 9 24 9 -4 18 6 26 27 16 40 128 137 160
137 13 1 37 -6 55 -15z"/>
<path d="M10300 10707 c-35 -13 -151 -74 -340 -180 -74 -41 -94 -57 -93 -73 5
-39 -8 -65 -42 -81 -19 -9 -32 -20 -29 -25 3 -4 -1 -5 -9 -2 -17 6 -50 -23
-44 -40 2 -6 -36 -51 -84 -100 -63 -62 -89 -95 -89 -113 0 -14 -20 -48 -49
-83 -27 -33 -64 -80 -81 -105 l-31 -45 26 -45 c15 -25 40 -54 55 -65 36 -25
86 -26 99 -2 6 12 30 22 68 29 79 15 143 46 201 98 42 38 57 45 130 59 46 8
120 32 165 52 296 131 452 183 520 170 l32 -6 3 -78 c3 -94 -2 -119 -27 -127
-16 -5 -20 -20 -26 -95 -6 -78 -10 -90 -26 -90 -13 0 -20 -10 -25 -35 -4 -25
-11 -35 -25 -35 -17 0 -19 -8 -19 -71 0 -79 -11 -109 -40 -109 -17 0 -20 -7
-20 -52 0 -70 -33 -119 -169 -250 -122 -119 -155 -135 -185 -94 -15 20 -19 39
-17 88 3 68 13 88 42 88 17 0 19 8 19 63 0 74 11 97 34 78 14 -12 16 -9 16 28
0 40 1 41 42 47 70 12 97 45 118 147 16 79 16 87 1 87 -32 0 -91 -21 -86 -30
3 -6 0 -7 -7 -5 -34 13 -128 -109 -128 -166 0 -15 -9 -37 -19 -50 -17 -21 -22
-22 -40 -11 -20 12 -21 10 -21 -45 0 -81 -16 -133 -40 -133 -18 0 -20 -7 -20
-56 0 -64 -13 -94 -40 -94 -18 0 -20 -7 -20 -65 0 -54 -3 -67 -20 -77 -16 -10
-20 -24 -20 -62 0 -44 5 -55 46 -103 26 -30 58 -59 73 -64 32 -13 71 -3 71 17
0 9 13 21 29 27 15 5 36 22 46 36 27 40 131 121 154 121 17 0 21 6 21 34 0 19
5 38 10 41 6 3 10 22 10 42 0 31 9 45 65 101 36 36 67 74 71 84 3 10 16 21 30
24 20 5 24 12 24 43 0 40 14 61 42 61 11 0 18 7 18 20 0 13 9 22 25 26 23 6
25 11 24 58 0 28 -4 60 -8 71 -6 15 -1 27 20 48 16 15 33 27 39 27 5 0 10 18
10 39 0 30 6 44 22 55 12 8 26 12 31 9 6 -4 8 8 4 34 -7 42 12 83 39 83 12 0
13 13 8 73 -4 39 -8 74 -10 76 -5 6 37 41 49 41 5 0 7 6 4 13 -2 7 1 44 9 82
16 87 6 128 -39 153 -49 26 -237 23 -342 -6 -101 -28 -329 -138 -319 -154 4
-7 3 -8 -5 -4 -6 4 -23 1 -36 -8 -13 -9 -41 -25 -62 -37 -275 -157 -321 -177
-361 -163 -24 9 -28 16 -34 74 -8 73 3 113 34 127 14 6 21 20 24 47 3 37 27
76 46 76 5 0 72 32 151 71 78 39 180 85 226 101 99 34 111 30 111 -42 0 -40 3
-48 25 -58 43 -20 71 -14 117 23 97 78 124 97 151 102 26 5 28 9 23 37 -3 17
-8 59 -12 93 l-7 63 -56 27 c-45 22 -72 29 -136 31 -48 1 -94 -3 -115 -11z"/>
<path d="M11135 10346 c-12 -98 -15 -106 -40 -106 -23 0 -23 -2 -29 -147 -4
-82 -9 -176 -12 -210 -5 -59 -7 -63 -30 -63 l-24 0 0 -247 c1 -264 -5 -322
-45 -412 -17 -39 -24 -72 -23 -111 0 -30 -2 -111 -7 -180 -12 -202 16 -351 76
-406 16 -15 23 -14 81 4 35 11 88 26 118 32 91 19 343 24 506 9 82 -7 170 -13
196 -14 25 0 44 -3 41 -7 -2 -5 4 -8 15 -8 10 0 118 -11 238 -25 120 -14 254
-25 296 -25 72 0 79 2 94 26 16 24 27 145 14 157 -3 3 -103 17 -223 32 -209
25 -234 26 -610 23 -323 -4 -407 -7 -475 -22 -63 -13 -87 -14 -97 -6 -8 7 -19
9 -24 5 -7 -3 -8 0 -5 9 3 9 2 16 -3 16 -6 0 -19 19 -29 42 -21 48 -25 184
-10 361 7 90 9 97 27 92 11 -4 21 -1 23 7 3 7 8 84 11 171 l7 157 28 0 c28 0
28 1 34 73 3 39 11 155 16 257 6 101 15 187 20 190 7 4 30 277 30 358 0 22 -3
22 -89 21 l-89 -1 -7 -52z"/>
<path d="M6160 9669 c0 -5 5 -7 12 -3 8 5 9 2 3 -12 -11 -26 -12 -64 -4 -96 5
-19 4 -28 -4 -28 -9 0 -9 -2 0 -8 17 -11 -5 -95 -23 -88 -7 3 -16 1 -19 -4 -4
-6 0 -10 7 -10 24 0 16 -78 -10 -105 -12 -13 -22 -36 -22 -52 0 -16 -11 -53
-25 -81 -14 -29 -25 -58 -25 -66 0 -8 -7 -16 -15 -20 -8 -3 -15 -15 -15 -26 0
-18 -16 -56 -30 -70 -3 -3 -10 -14 -16 -25 -6 -11 -21 -21 -33 -21 -26 -2 -42
-14 -18 -14 21 0 22 -28 2 -50 -15 -16 -25 -47 -27 -78 -1 -8 -12 -18 -25 -23
-12 -5 -23 -15 -23 -24 0 -8 -4 -15 -10 -15 -5 0 -10 -8 -10 -17 0 -34 -15
-46 -40 -33 -18 10 -21 9 -15 -1 5 -7 1 -17 -10 -26 -17 -12 -17 -13 -2 -13
18 0 23 -15 8 -24 -5 -4 -12 0 -14 6 -3 7 -6 2 -6 -10 -1 -15 -9 -26 -21 -29
-11 -3 -20 -10 -20 -16 0 -6 -7 -19 -17 -29 -13 -14 -13 -18 -2 -18 10 -1 9
-4 -4 -11 -9 -5 -22 -7 -27 -4 -6 3 -10 1 -10 -5 0 -6 -4 -9 -9 -5 -5 3 -12 1
-15 -4 -3 -5 1 -12 9 -15 13 -5 13 -9 3 -26 -7 -11 -18 -20 -25 -20 -7 0 -13
-4 -13 -9 0 -5 -9 -11 -20 -14 -13 -3 -18 -11 -14 -20 6 -16 -28 -33 -46 -22
-5 3 -10 -3 -10 -13 0 -15 -8 -21 -35 -24 -19 -2 -37 1 -39 7 -5 12 2 -48 14
-130 6 -33 12 -89 15 -125 3 -36 10 -114 16 -175 20 -217 5 -449 -52 -815 -17
-115 -29 -167 -65 -282 -7 -25 124 28 259 104 118 66 222 159 312 278 27 36
50 67 52 69 17 23 48 -219 52 -404 2 -108 -2 -154 -24 -265 -61 -306 -114
-477 -211 -673 -35 -70 -64 -130 -64 -132 0 -2 44 27 97 66 140 101 252 215
348 354 46 66 106 152 135 190 79 107 149 230 180 319 135 384 148 575 63 934
-3 12 -1 22 6 22 6 0 62 -24 125 -54 l114 -54 12 59 c12 55 9 370 -4 484 -2
22 -7 69 -10 105 -14 148 -96 467 -165 640 -21 52 -44 113 -51 134 -7 22 -28
65 -46 97 -19 32 -34 60 -34 63 0 3 -15 31 -34 63 -18 32 -50 90 -71 128 -49
93 -134 207 -147 198 -7 -3 -8 -1 -4 5 4 6 -11 36 -34 67 -38 52 -60 68 -60
44z"/>
<path d="M4006 9605 c4 -9 -3 -16 -19 -20 -13 -4 -30 -18 -38 -31 -7 -14 -24
-27 -38 -30 -14 -3 -36 -9 -47 -14 -17 -7 -24 -4 -33 16 -6 13 -17 24 -26 24
-18 0 -20 -36 -2 -43 9 -4 9 -7 -1 -14 -14 -11 -10 -109 6 -106 5 1 8 -17 5
-45 -7 -68 -11 -74 -13 -17 -2 46 -2 48 -11 20 -12 -39 -10 -197 2 -189 5 3 6
10 3 16 -4 7 -2 8 4 4 7 -4 12 -14 12 -22 0 -8 3 -14 8 -14 4 0 6 -17 4 -38
-2 -25 -9 -39 -18 -39 -8 0 -14 4 -14 9 0 4 4 8 9 8 14 0 6 53 -8 58 -7 2 -11
-13 -11 -45 0 -26 -3 -72 -7 -102 -4 -40 -3 -52 5 -47 8 5 10 2 6 -8 -3 -9
-10 -16 -15 -16 -5 0 -9 -69 -8 -153 l1 -153 29 4 c23 3 29 1 29 -14 0 -15 -2
-16 -9 -6 -5 8 -17 12 -27 10 -20 -4 -26 -45 -16 -121 4 -36 5 -37 27 -23 21
14 22 13 17 -10 -4 -22 -13 -29 -34 -25 -11 1 -10 -27 1 -33 5 -3 14 1 21 9
21 25 32 17 13 -10 -20 -27 -38 -32 -47 -12 -3 6 -4 -62 -3 -153 1 -91 1 -205
0 -255 -2 -141 3 -360 9 -370 3 -6 4 -36 4 -67 -1 -51 0 -55 11 -35 8 15 13
17 13 7 1 -10 4 -9 9 4 7 19 8 19 13 -2 4 -15 2 -22 -8 -22 -19 0 -36 -45 -28
-75 3 -12 1 -26 -5 -30 -7 -4 -8 -12 -1 -24 5 -10 6 -21 3 -25 -3 -3 -1 -6 5
-6 7 0 12 17 12 42 0 25 4 38 9 32 13 -13 -2 -100 -17 -96 -7 1 -12 -7 -12
-19 0 -35 23 -15 42 37 11 30 16 37 12 18 -2 -17 -7 -57 -9 -89 -3 -32 -10
-62 -17 -66 -17 -11 -24 -240 -9 -266 9 -14 10 -8 5 29 -3 25 -3 55 1 67 6 19
8 20 22 6 8 -9 12 -19 9 -23 -4 -3 -11 0 -16 8 -7 11 -10 8 -10 -12 0 -16 5
-28 11 -28 6 0 9 -6 6 -14 -3 -8 -1 -17 6 -20 9 -3 9 -5 0 -5 -8 -1 -13 -15
-13 -37 0 -19 4 -33 8 -30 5 3 6 -9 4 -27 -3 -18 -7 -26 -10 -19 -3 10 -7 10
-18 1 -18 -15 -18 -29 1 -29 9 0 15 -9 14 -22 0 -22 -1 -22 -8 -3 -6 15 -9 9
-12 -27 -2 -25 -1 -44 4 -41 4 2 7 12 8 21 0 14 2 14 6 2 3 -8 11 -18 17 -22
7 -5 5 -8 -5 -8 -9 0 -19 -10 -23 -22 -9 -35 -8 -38 14 -38 18 0 20 -6 18 -55
-1 -30 -6 -55 -11 -55 -5 0 -7 21 -4 48 2 26 2 37 0 24 -2 -12 -8 -20 -12 -17
-5 2 -8 -18 -7 -45 0 -28 4 -50 8 -50 4 0 5 -33 2 -73 -6 -61 -4 -76 10 -90
13 -12 14 -17 4 -17 -10 0 -9 -3 2 -10 10 -7 12 -12 4 -17 -11 -8 -13 -48 -2
-58 3 -3 3 -42 2 -88 -3 -49 0 -77 5 -68 5 8 8 -31 7 -96 -1 -79 3 -114 13
-126 10 -13 11 -24 3 -47 -9 -25 -8 -31 8 -40 14 -8 20 -6 24 8 4 13 4 12 3
-3 -2 -12 -9 -19 -18 -17 -13 2 -15 -7 -14 -45 2 -27 5 -55 8 -63 3 -8 8 -24
10 -35 3 -11 6 0 7 25 l2 45 9 -60 c5 -33 7 -67 5 -75 -2 -8 -5 1 -6 20 l-2
35 -8 -30 c-7 -28 -8 -28 -9 -5 -1 14 -6 32 -12 40 -7 11 -8 4 -3 -25 3 -22
15 -48 26 -57 13 -12 18 -26 15 -45 l-4 -28 -2 28 c-1 27 -2 27 -18 12 -13
-14 -14 -18 -2 -25 9 -6 12 -24 10 -57 -6 -78 -1 -146 12 -159 11 -11 9 -26
-3 -19 -5 3 -10 -3 -10 -14 0 -12 3 -20 8 -20 25 4 32 -4 32 -37 0 -30 -3 -34
-14 -25 -11 9 -15 7 -19 -9 -3 -13 0 -20 9 -20 8 0 14 -7 14 -15 0 -8 -5 -15
-11 -15 -6 0 -8 -7 -5 -17 4 -9 9 -74 11 -143 6 -184 16 -321 26 -348 5 -13 7
-42 4 -65 -4 -32 -3 -37 4 -22 7 15 10 3 9 -45 -2 -63 10 -177 19 -193 2 -4 9
-5 14 -2 5 4 8 -6 8 -22 -1 -17 -3 -21 -6 -10 -2 9 -8 17 -13 17 -9 0 -3 -115
8 -140 5 -14 13 -72 12 -97 -1 -39 -1 -52 3 -88 3 -22 7 -49 10 -60 3 -11 6
-22 6 -25 1 -3 6 2 11 10 8 12 10 12 10 -5 0 -11 3 -30 6 -42 5 -17 2 -23 -10
-23 -22 0 -22 -67 1 -92 9 -10 11 -18 5 -18 -8 0 -9 -7 -2 -24 5 -14 6 -26 2
-28 -4 -2 -5 -16 -1 -33 l7 -30 1 33 c1 25 5 32 21 32 26 0 37 -27 22 -51 -7
-10 -12 -31 -13 -46 0 -24 -1 -25 -8 -8 -5 11 -5 27 0 36 5 9 6 19 2 22 -3 4
0 14 8 23 12 15 12 17 -1 12 -10 -3 -18 -26 -24 -67 -8 -55 -7 -65 7 -73 10
-5 17 -14 17 -21 0 -8 -3 -8 -9 1 -6 11 -9 9 -13 -6 -7 -24 2 -73 11 -68 4 3
5 -10 3 -28 -2 -21 2 -37 12 -45 9 -8 16 -23 15 -35 0 -18 -3 -16 -14 9 l-14
30 -1 -38 c0 -25 4 -36 11 -31 8 4 9 0 4 -15 -5 -16 -2 -21 12 -21 16 -1 16
-2 2 -10 -22 -13 -19 -92 5 -119 10 -11 16 -26 13 -33 -4 -8 -6 -7 -6 5 -2 30
-16 18 -16 -13 0 -16 3 -30 6 -30 4 0 7 -15 7 -32 2 -57 6 -77 14 -72 4 3 5
-8 2 -24 -3 -16 -1 -32 4 -36 6 -3 8 -16 6 -29 -5 -22 -5 -22 6 1 5 13 14 20
20 17 15 -10 12 -53 -5 -63 -13 -7 -13 -14 -4 -42 7 -19 16 -38 21 -41 14 -9
12 -20 -4 -30 -10 -7 -10 -9 0 -9 6 0 12 -4 12 -10 0 -5 -25 -10 -55 -10 -49
0 -141 -19 -245 -52 -74 -23 -178 -73 -323 -158 -98 -56 -226 -110 -263 -110
-23 0 -17 -14 36 -83 l51 -65 37 10 c43 12 214 94 287 138 290 175 527 204
788 95 46 -20 139 -67 208 -106 169 -96 296 -139 439 -146 123 -7 225 6 330
42 65 22 102 41 335 166 144 78 236 103 380 104 167 0 255 -29 485 -162 177
-102 286 -140 440 -153 86 -8 123 -7 178 5 87 18 172 50 237 88 139 83 239
136 314 167 247 101 467 76 756 -88 237 -134 353 -171 533 -172 174 0 309 41
517 159 161 90 247 127 346 147 187 38 365 -4 594 -140 138 -83 243 -129 342
-150 30 -7 34 -4 82 60 28 37 51 71 51 75 0 5 -9 9 -20 9 -68 0 -197 54 -415
175 -173 95 -338 145 -482 145 -83 0 -85 1 -70 18 18 20 23 47 7 37 -6 -3 -10
-1 -10 5 0 6 6 10 13 9 25 -3 38 1 32 11 -4 6 -12 7 -18 4 -7 -4 -9 -4 -5 1 4
4 3 14 -3 22 -16 18 -4 16 16 -3 12 -13 18 -14 31 -4 8 7 12 15 9 18 -3 3 4
16 16 28 13 14 18 27 13 36 -13 21 -14 42 -1 50 7 5 2 8 -14 8 -23 0 -25 -3
-22 -32 l4 -33 -19 24 c-11 13 -24 21 -30 17 -6 -3 -14 -1 -18 5 -4 7 -3 10 2
7 5 -3 18 -2 29 3 11 5 -44 7 -130 5 -82 -2 -199 -3 -260 -2 -60 0 -237 1
-393 1 -155 0 -282 3 -282 7 0 4 -9 10 -20 13 -11 4 -17 11 -14 17 12 19 6
453 -5 450 -6 -1 -11 5 -11 13 0 8 6 12 14 9 8 -3 15 3 18 14 5 16 17 20 84
24 44 3 134 5 201 4 76 -1 123 3 123 9 0 6 3 6 8 0 4 -7 120 -11 337 -10 l330
0 3 25 c5 38 19 45 15 8 -2 -26 -1 -29 6 -13 4 11 7 27 5 35 -1 8 -3 18 -3 23
-2 20 -21 3 -30 -25 -7 -26 -9 -28 -10 -10 -1 12 -5 22 -10 22 -9 0 -8 57 2
66 3 3 3 13 0 22 -4 13 -1 12 11 -3 17 -19 17 -19 5 5 -7 13 -18 30 -25 38 -7
7 -10 20 -7 29 4 10 2 14 -4 10 -6 -4 -10 1 -9 11 0 10 -5 16 -13 14 -10 -2
-12 4 -7 23 4 16 2 25 -5 25 -6 0 -8 7 -5 16 3 8 2 13 -3 10 -5 -4 -7 -23 -4
-45 3 -21 1 -46 -4 -55 -6 -12 -8 3 -6 46 2 35 3 71 4 81 0 11 -7 24 -16 31
-9 7 -16 19 -15 27 5 33 0 48 -15 43 -11 -5 -12 -11 -5 -24 13 -25 13 -50 -1
-50 -6 0 -8 9 -4 23 5 19 4 20 -5 4 -13 -21 -4 -40 17 -33 10 4 13 0 11 -14
-4 -27 -20 -28 -34 -1 -6 11 -13 19 -15 17 -2 -2 -5 7 -6 21 0 16 2 21 7 14 5
-9 9 -8 14 4 8 21 8 25 -1 24 -32 -5 -44 31 -27 75 7 20 24 11 24 -12 0 -15
-2 -15 -10 -2 -15 23 -12 6 4 -25 10 -19 16 -23 22 -14 4 7 3 14 -4 17 -6 2
-9 9 -6 15 6 18 -52 127 -68 127 -5 0 -8 -6 -8 -13 0 -8 -7 -14 -15 -14 -19 0
-19 16 0 23 8 4 13 10 10 14 -3 5 1 15 10 23 13 13 11 18 -12 41 -14 15 -23
29 -20 33 4 3 7 1 7 -5 0 -7 5 -12 11 -12 8 0 8 4 0 14 -6 7 -18 37 -27 65 -8
28 -19 51 -25 51 -5 0 -9 6 -8 12 3 27 -1 39 -13 32 -8 -5 -9 -2 -5 9 3 9 2
19 -4 23 -6 3 -8 12 -5 19 3 9 -2 11 -17 8 -22 -4 -22 -4 -3 11 19 16 19 16
-5 16 -19 0 -21 2 -9 10 13 8 13 11 -2 27 -17 16 -18 16 -19 -7 0 -23 -1 -23
-8 -5 -6 14 -3 23 9 30 12 7 15 16 9 30 -6 17 -8 17 -8 3 -1 -10 -8 -18 -16
-18 -10 0 -15 -10 -16 -27 0 -16 -3 -22 -6 -15 -7 19 6 64 17 57 6 -4 9 4 7
16 -2 13 -9 25 -15 27 -9 3 -9 9 -1 24 9 16 8 19 -2 13 -9 -6 -11 -3 -6 8 3 9
2 19 -4 22 -5 4 -7 11 -4 16 4 5 2 9 -4 9 -5 0 -11 -6 -14 -12 -2 -7 -4 3 -5
22 -1 55 -5 70 -15 63 -5 -3 -7 0 -5 8 7 18 -10 51 -22 44 -6 -3 -7 0 -5 7 4
9 -4 14 -22 16 -30 2 -43 17 -43 50 0 13 -5 33 -11 44 -8 16 -8 19 1 13 9 -5
10 -1 5 16 -5 18 -4 20 4 9 5 -8 13 -11 18 -7 4 5 -3 17 -17 29 -17 13 -19 18
-7 14 16 -5 16 -4 0 27 -9 17 -16 36 -15 40 1 5 -8 6 -20 2 -20 -5 -21 -4 -5
5 9 6 17 16 17 21 0 6 -5 7 -12 3 -8 -5 -9 -2 -5 9 3 9 2 19 -3 22 -10 6 -14
-8 -11 -34 2 -8 -2 -10 -10 -5 -9 5 -10 2 -6 -10 5 -11 3 -16 -5 -14 -17 6
-17 80 -1 100 11 13 12 21 3 37 -6 12 -14 21 -19 21 -9 0 -34 69 -31 85 4 20
0 32 -20 55 -12 13 -20 18 -20 10 0 -7 -3 -10 -6 -7 -4 4 -2 13 5 21 9 11 8
17 -4 29 -8 9 -15 24 -15 35 0 10 -10 30 -22 43 -23 25 -28 33 -28 47 0 4 -4
1 -9 -7 -6 -9 -8 -4 -7 17 1 17 5 34 9 38 10 10 9 26 -2 20 -5 -3 -11 1 -14 8
-3 8 -1 17 6 20 8 3 6 5 -3 5 -32 2 -40 16 -31 49 9 29 8 31 -12 29 -17 -2
-22 3 -22 25 -1 23 1 25 15 15 8 -6 4 2 -10 17 -14 16 -19 26 -12 22 6 -4 12
-3 12 3 0 5 -7 14 -15 18 -8 5 -16 21 -17 35 -1 15 -6 24 -11 21 -5 -3 -7 3
-3 13 3 11 1 26 -4 34 -7 11 -9 4 -7 -22 2 -21 0 -38 -5 -38 -4 0 -8 7 -8 15
0 8 -4 15 -10 15 -5 0 -7 -8 -4 -17 5 -15 4 -15 -4 -3 -13 17 -6 30 14 30 11
0 12 4 4 19 -7 14 -7 22 0 26 6 4 8 11 4 16 -3 6 -11 3 -19 -8 -12 -16 -13
-15 -12 9 1 14 6 24 10 21 5 -3 1 9 -8 26 -9 17 -13 37 -10 44 4 7 -2 1 -13
-13 -15 -17 -18 -28 -10 -37 12 -14 2 -33 -17 -33 -17 0 -33 46 -29 83 2 24 0
27 -17 22 -10 -4 -19 -2 -19 3 0 17 13 21 32 11 14 -7 17 -16 12 -32 -6 -19
-5 -20 10 -8 14 12 16 12 10 -3 -10 -27 12 -18 24 10 7 14 8 23 2 19 -5 -3
-11 2 -11 12 -1 10 -2 23 -4 28 -1 6 -3 16 -3 23 -3 17 -19 15 -26 -4 -4 -9 0
-24 9 -34 8 -9 15 -20 15 -25 0 -4 -9 4 -20 17 -16 21 -18 30 -8 55 12 33 6
63 -14 63 -8 0 -9 -3 -3 -8 16 -11 15 -29 -1 -29 -12 0 -14 8 -9 34 3 18 3 39
-2 45 -8 14 -9 32 -11 161 -1 55 -6 87 -13 87 -7 0 -10 -30 -7 -94 1 -52 0
-92 -4 -89 -5 2 -9 46 -10 96 l-2 92 -6 -85 -6 -85 -2 75 c-1 41 1 86 5 99 6
23 7 24 15 5 6 -13 7 -8 4 18 -3 21 0 40 5 43 5 4 9 -10 9 -29 0 -20 4 -36 9
-36 7 0 8 121 1 170 -2 13 0 281 4 405 2 102 2 117 -3 55 l-7 -85 -2 105 c0
58 3 157 8 220 4 63 6 119 3 124 -3 4 -5 122 -4 262 l2 254 -23 0 c-18 0 -20
2 -8 9 8 6 18 7 22 5 4 -3 8 10 9 28 0 18 2 47 4 63 3 30 3 30 -51 32 -50 2
-55 1 -69 -27 -9 -17 -11 -30 -6 -30 5 0 12 8 14 18 4 16 5 16 6 -1 0 -10 -5
-20 -13 -23 -13 -5 -14 -105 -11 -705 3 -441 0 -701 -6 -704 -18 -12 2 -25 37
-25 19 0 34 -5 34 -11 0 -7 -9 -9 -22 -5 -13 3 -28 6 -35 6 -6 0 -19 8 -29 17
-13 13 -19 14 -22 5 -5 -16 -23 -16 -19 1 1 8 -15 12 -55 12 -31 0 -54 4 -51
9 4 5 -12 6 -36 2 -30 -4 -40 -3 -36 5 4 6 -7 3 -25 -6 -18 -9 -40 -15 -49
-12 -9 2 -22 -2 -29 -10 -7 -7 -18 -13 -25 -12 -9 0 -9 2 1 6 6 2 12 11 12 20
0 11 7 13 33 8 21 -5 29 -4 22 3 -15 15 -94 20 -99 5 -3 -6 3 -14 12 -16 10
-3 7 -5 -9 -6 -16 -1 -26 4 -25 12 0 6 -3 13 -9 14 -5 1 -9 -6 -7 -15 3 -15 2
-15 -10 0 -18 25 -79 31 -95 9 -11 -15 -12 -15 -13 2 0 18 -32 23 -64 11 -23
-9 -20 -24 4 -24 11 0 20 5 20 10 0 6 6 5 14 -2 7 -7 11 -19 9 -25 -7 -18 -51
-8 -77 16 -18 17 -33 19 -101 17 -44 -1 -89 -6 -99 -11 -13 -6 -17 -5 -13 2 9
15 -35 4 -45 -11 -5 -8 -8 -7 -8 2 0 7 -14 12 -37 12 -26 0 -34 -3 -24 -9 8
-5 21 -7 29 -3 10 3 13 1 8 -6 -5 -8 1 -12 15 -12 12 0 19 -3 16 -6 -4 -4 -32
1 -62 11 -31 9 -59 14 -62 11 -4 -3 1 -6 10 -6 37 0 14 -15 -26 -17 -31 -1
-37 1 -22 7 13 6 15 9 5 9 -8 0 -21 -3 -29 -8 -10 -6 -6 -11 15 -20 25 -10 22
-10 -26 -5 -30 3 -58 11 -62 17 -6 8 -10 9 -15 1 -5 -6 -17 -14 -28 -18 -15
-5 -16 -9 -6 -15 10 -6 3 -13 -24 -22 -35 -13 -36 -14 -14 -20 18 -5 15 -7
-14 -6 -24 0 -33 3 -25 8 9 6 7 9 -7 10 -11 1 -2 5 19 8 28 4 40 11 42 24 2
16 -2 18 -24 12 -15 -3 -29 -11 -30 -16 -2 -5 -20 -7 -40 -4 -30 4 -32 3 -12
-4 25 -9 25 -9 -5 -10 -17 -1 -37 -7 -44 -13 -11 -11 -13 -10 -8 5 6 15 4 16
-16 6 -12 -7 -24 -15 -27 -19 -3 -4 -18 -10 -35 -14 -23 -5 -27 -4 -15 5 13 9
12 10 -3 5 -10 -3 -21 -6 -23 -6 -2 0 -4 -7 -4 -16 0 -12 -6 -15 -26 -10 -17
5 -43 -2 -81 -19 -30 -15 -65 -28 -77 -29 -12 -1 -27 -6 -34 -10 -7 -4 -21 -9
-32 -11 -11 -2 -28 -9 -37 -15 -15 -8 -13 -9 8 -4 15 3 29 2 32 -3 3 -4 -14
-9 -36 -9 -57 -2 -59 -3 -53 -13 3 -5 35 -8 71 -7 36 1 65 -1 65 -5 0 -4 -45
-6 -101 -6 -94 2 -102 1 -120 -21 -10 -13 -23 -21 -28 -17 -6 3 -19 -3 -31
-15 -11 -11 -30 -20 -42 -21 -13 0 -17 -3 -10 -6 6 -2 12 -14 12 -26 0 -22 -1
-22 -19 2 l-19 24 -6 -21 c-4 -12 -12 -22 -17 -22 -6 0 -7 5 -3 12 4 7 3 8 -5
4 -6 -4 -8 -12 -5 -18 4 -6 -1 -8 -14 -4 -13 4 -22 1 -26 -9 -4 -13 -1 -15 13
-10 11 3 22 2 24 -3 7 -10 -34 -10 -51 1 -7 5 -12 5 -11 0 3 -13 -12 -43 -23
-43 -5 0 -6 5 -3 10 3 6 1 10 -5 10 -6 0 -13 -7 -16 -15 -4 -8 -10 -13 -14
-10 -4 3 -10 -2 -14 -10 -3 -8 0 -17 6 -21 7 -5 8 -2 3 6 -5 8 -4 11 3 6 6 -3
21 -2 34 2 55 21 64 -13 14 -52 -39 -29 -58 -34 -50 -11 4 8 15 15 26 15 13 0
18 5 15 14 -4 10 2 16 16 18 13 2 17 6 11 10 -6 4 -23 0 -38 -7 -18 -10 -34
-12 -44 -6 -9 5 -25 5 -38 -1 -29 -13 -39 -38 -17 -38 13 0 14 -3 5 -12 -9 -9
-15 -9 -24 0 -7 7 -17 12 -22 12 -6 -1 -1 -9 11 -19 19 -16 20 -20 7 -25 -22
-8 -24 -8 -21 7 1 6 -5 12 -13 12 -8 0 -14 -6 -12 -13 1 -7 -11 -18 -28 -23
-16 -6 -28 -16 -27 -22 1 -7 -4 -11 -11 -9 -8 1 -12 -3 -10 -9 2 -7 14 -14 27
-16 19 -3 21 0 16 19 -5 20 -4 21 5 5 13 -21 4 -41 -16 -33 -8 3 -14 -1 -14
-9 0 -8 -7 -15 -16 -15 -9 0 -14 6 -11 13 3 7 -3 13 -13 13 -10 0 -16 -4 -13
-9 3 -5 -5 -11 -16 -14 -18 -5 -19 -8 -9 -21 11 -13 10 -15 -4 -9 -10 3 -18 2
-18 -3 0 -6 -14 -24 -32 -40 -28 -27 -30 -34 -20 -51 7 -10 8 -19 4 -19 -5 0
-13 10 -19 22 l-10 23 -12 -24 c-7 -13 -9 -21 -4 -18 5 3 14 -2 20 -12 10 -15
8 -20 -10 -28 -12 -6 -31 -9 -42 -7 -11 2 -23 -2 -27 -9 -11 -17 -10 -27 3
-27 5 0 7 5 4 10 -3 6 -1 10 5 10 7 0 9 -7 6 -16 -3 -9 -6 -17 -6 -18 0 -2
-12 -1 -27 1 -22 4 -25 2 -13 -6 13 -9 13 -11 -2 -11 -9 0 -20 -5 -23 -10 -4
-6 -1 -9 6 -8 7 2 14 -6 16 -17 1 -11 0 -14 -3 -7 -7 15 -31 16 -40 0 -4 -6
-3 -8 4 -4 6 3 14 1 18 -5 4 -8 3 -9 -4 -5 -20 12 -64 -46 -50 -66 1 -2 -4
-14 -11 -27 -9 -17 -15 -20 -21 -11 -5 9 -9 9 -14 1 -4 -6 -3 -11 1 -11 5 0 9
-9 9 -20 0 -25 -16 -27 -16 -2 -1 9 -7 0 -14 -21 -8 -20 -19 -43 -25 -51 -7
-8 -8 -16 -3 -18 5 -1 6 -12 1 -23 -6 -17 -8 -17 -8 -2 -1 9 -5 17 -10 17 -5
0 -7 -10 -4 -22 4 -19 3 -20 -6 -8 -8 11 -9 7 -4 -19 4 -23 3 -32 -4 -28 -6 4
-14 -4 -17 -18 -4 -16 -11 -23 -18 -19 -7 5 -9 0 -6 -14 4 -12 2 -22 -2 -22
-5 0 -14 -17 -21 -37 -9 -29 -9 -38 0 -41 8 -3 4 -10 -9 -19 -15 -11 -20 -23
-17 -39 2 -13 0 -24 -5 -24 -6 0 -8 -6 -5 -14 3 -7 0 -22 -7 -32 -7 -11 -12
-27 -10 -37 1 -9 -2 -15 -7 -11 -5 3 -9 -6 -9 -20 0 -14 5 -26 10 -26 6 0 10
-7 10 -16 0 -14 -3 -14 -15 -4 -13 11 -15 5 -15 -42 0 -30 -3 -58 -7 -62 -4
-4 -8 -31 -9 -59 l-2 -52 13 40 13 40 -3 -38 c-1 -21 -7 -43 -13 -49 -6 -6 -8
-17 -5 -26 4 -10 2 -13 -5 -8 -7 4 -12 3 -12 -3 0 -5 -3 -18 -6 -28 -4 -14 -4
-15 4 -4 8 11 11 9 17 -10 5 -14 3 -25 -4 -27 -6 -2 -11 -26 -11 -57 0 -43 4
-54 18 -58 15 -4 15 -5 -1 -6 -10 0 -17 -6 -15 -13 8 -23 26 -19 36 9 10 24
10 22 5 -17 -6 -48 -13 -66 -13 -34 0 16 -2 17 -10 4 -5 -8 -9 -31 -9 -50 1
-32 2 -33 9 -10 7 20 9 16 10 -25 2 -98 5 -120 15 -127 5 -4 13 -2 17 5 5 8 8
4 8 -10 0 -25 -16 -39 -23 -21 -2 7 -2 -9 1 -37 3 -27 8 -52 12 -55 4 -3 8
-13 8 -22 4 -43 6 -48 19 -48 11 0 13 -8 8 -31 -5 -22 -4 -29 4 -25 6 4 12 17
12 29 1 20 2 21 6 2 3 -11 10 -24 17 -28 7 -6 5 -7 -6 -4 -9 3 -19 -1 -22 -9
-3 -8 -2 -13 2 -10 18 11 33 -11 23 -35 -10 -24 -10 -24 -10 -1 -1 12 -5 22
-11 22 -13 0 -1 -32 18 -47 9 -7 11 -13 4 -13 -17 0 6 -59 29 -73 11 -7 19
-21 19 -33 0 -38 12 -84 22 -84 6 0 7 7 4 16 -3 8 -2 12 4 9 5 -3 17 6 26 20
20 30 32 25 17 -8 -6 -12 -14 -30 -17 -40 -3 -10 -10 -15 -16 -12 -14 9 -12
-7 4 -27 7 -10 17 -14 21 -10 4 4 5 -4 2 -17 -6 -23 12 -64 65 -151 12 -19 27
-45 33 -58 7 -13 16 -19 19 -14 3 6 -1 18 -10 27 -9 9 -14 18 -11 21 10 11 37
-29 32 -46 -10 -31 54 -138 74 -125 7 3 8 0 5 -9 -4 -9 1 -18 10 -22 9 -3 16
-14 16 -23 0 -21 43 -64 54 -54 4 4 4 0 1 -8 -3 -9 3 -27 14 -40 17 -20 20
-21 21 -6 0 9 -4 17 -10 17 -5 0 -10 5 -10 11 0 8 5 8 15 -1 8 -7 21 -10 30
-7 8 4 17 2 20 -2 2 -5 -4 -11 -15 -14 -31 -8 -24 -37 20 -78 22 -21 40 -42
40 -46 0 -5 11 -20 25 -33 14 -14 33 -33 43 -42 21 -23 39 -23 45 0 4 13 5 12
6 -5 0 -12 -4 -23 -11 -25 -7 -3 2 -11 19 -18 35 -16 35 -31 1 -25 -12 3 -26
1 -32 -4 -6 -5 -20 -5 -31 0 -18 7 -18 8 5 8 39 2 57 17 28 24 -12 4 -32 6
-43 6 -13 -1 -10 -4 10 -9 l30 -8 -32 -1 c-18 0 -33 4 -33 9 0 6 -12 10 -26
10 -14 0 -23 -4 -19 -10 9 -14 -8 -12 -25 3 -7 6 4 -11 26 -40 21 -29 45 -52
52 -53 7 0 12 -7 10 -16 -2 -12 6 -17 27 -20 28 -3 29 -2 11 12 -11 8 -16 14
-11 14 5 0 4 5 -3 12 -7 7 -12 21 -11 32 0 17 2 16 11 -6 5 -16 14 -28 19 -28
5 0 9 -7 9 -16 0 -8 4 -13 8 -10 4 2 8 -4 8 -14 0 -14 -5 -16 -23 -9 -23 8
-42 -4 -23 -16 5 -3 10 -4 10 0 0 3 9 1 20 -5 11 -6 18 -15 15 -20 -3 -5 10
-27 30 -48 19 -22 35 -44 35 -50 0 -15 22 -20 45 -10 18 8 18 8 -3 4 -15 -3
-26 2 -34 17 -6 12 -16 25 -22 29 -8 6 -8 8 0 8 7 0 11 7 10 16 0 10 8 18 21
20 23 4 23 4 3 -16 -16 -16 -18 -24 -9 -42 8 -18 18 -23 46 -23 34 0 37 -2 39
-30 1 -16 -2 -35 -7 -41 -6 -7 -1 -18 13 -30 12 -10 18 -14 15 -7 -9 15 9 26
48 29 l30 3 -28 -11 c-15 -5 -25 -14 -22 -18 3 -5 12 -7 20 -3 8 3 15 1 15 -5
0 -11 -18 -11 -37 1 -6 4 -13 2 -15 -5 -3 -8 -31 2 -84 29 -227 118 -454 160
-637 118 -163 -38 -258 -77 -452 -188 -151 -86 -227 -110 -362 -115 -108 -4
-111 -4 -124 19 -7 13 -12 27 -11 32 2 7 -13 11 -35 8 -7 -1 -24 6 -38 15
l-26 17 10 -27 c10 -24 9 -25 -9 -14 -22 14 -35 39 -18 35 6 -1 13 4 15 11 3
7 -3 12 -14 12 -13 0 -14 3 -5 8 7 5 10 17 7 28 -6 18 -6 17 6 -1 6 -11 14
-22 15 -24 2 -2 13 4 24 14 11 10 20 15 20 11 0 -4 -10 -16 -22 -26 -22 -17
-22 -17 -1 -28 31 -17 61 -11 55 10 -2 10 -9 18 -14 18 -5 0 -7 4 -3 9 3 5 0
13 -6 16 -5 4 -8 13 -5 21 3 7 1 16 -4 19 -6 4 -10 15 -10 25 0 14 -5 18 -17
13 -15 -5 -16 -3 -5 8 18 20 15 34 -5 18 -12 -10 -15 -11 -9 -1 4 7 2 20 -5
28 -10 12 -9 13 5 8 12 -5 15 -2 10 9 -3 9 -12 13 -19 11 -10 -4 -12 4 -10 30
2 23 0 34 -7 30 -5 -3 -9 2 -7 12 4 30 -11 71 -32 90 -11 10 -19 12 -19 6 0
-7 -5 -12 -10 -12 -7 0 -7 7 0 20 6 11 15 18 19 16 4 -3 6 6 3 19 -2 14 -8 28
-13 30 -4 3 -5 13 -2 21 3 8 1 25 -4 37 -6 12 -16 34 -23 49 -7 14 -9 31 -6
37 4 6 3 26 -3 44 -5 17 -17 57 -25 87 -11 41 -15 48 -15 26 -1 -39 -11 -27
-16 18 -2 21 1 33 6 30 11 -7 6 25 -14 79 -7 20 -17 34 -21 30 -4 -4 -2 5 3
20 8 19 8 26 1 22 -7 -4 -9 2 -4 19 5 20 2 26 -10 26 -9 0 -16 4 -16 9 0 5 -3
18 -6 28 -5 16 -4 16 10 -1 18 -22 21 -14 6 14 -6 11 -17 17 -25 14 -10 -4
-15 0 -15 12 0 16 2 16 10 4 19 -31 24 22 6 69 -17 44 -23 72 -25 115 -1 11
-4 16 -7 13 -4 -4 -7 -34 -6 -67 0 -33 -4 -60 -9 -60 -5 0 -9 13 -9 29 0 16
-3 44 -6 62 -4 24 -3 30 4 20 8 -11 11 -7 14 20 4 40 -11 99 -25 99 -5 0 -6
12 -2 27 6 24 5 25 -11 12 -16 -13 -16 -12 -7 6 5 11 8 26 7 33 -1 6 -2 21 -3
33 0 11 -5 17 -11 14 -6 -4 -8 6 -6 24 2 17 1 30 -3 29 -19 -2 -22 4 -10 18 9
11 9 18 2 22 -6 4 -13 21 -16 37 -3 26 -4 25 -6 -10 -3 -44 -19 -95 -20 -62
-1 9 -6 17 -12 17 -6 0 -9 -7 -5 -15 3 -9 0 -15 -9 -15 -10 0 -15 10 -15 30 0
17 5 30 10 30 6 0 14 8 17 18 4 9 15 26 25 36 12 13 16 27 11 40 -3 12 -6 26
-6 33 0 7 -4 10 -9 7 -4 -3 -6 -16 -4 -30 3 -16 -2 -32 -15 -45 -24 -24 -29
-24 -29 1 0 14 6 20 18 18 12 -2 16 3 14 18 -1 11 2 33 8 49 6 15 8 30 5 33
-2 3 -9 -6 -14 -19 -7 -20 -9 -16 -8 23 0 41 2 45 13 30 18 -24 17 -7 -2 30
-9 16 -11 27 -5 24 15 -10 14 7 -3 30 -8 11 -13 32 -10 49 4 25 3 26 -5 10 -5
-11 -10 -30 -10 -42 -1 -34 -18 -36 -18 -3 0 17 5 30 10 30 5 0 7 9 4 20 -3
13 0 20 9 20 11 0 12 4 5 19 -6 10 -7 22 -3 26 4 5 1 5 -5 1 -10 -5 -13 4 -13
33 0 23 -4 41 -10 41 -5 0 -10 -5 -10 -12 0 -6 -3 -8 -7 -5 -10 11 -14 67 -4
67 5 0 11 9 14 19 4 15 1 18 -12 13 -14 -5 -14 -4 -2 12 12 14 12 24 3 49 -6
18 -12 49 -14 70 -1 20 -6 37 -11 37 -4 0 -7 8 -6 18 5 49 -3 102 -16 115 -10
10 -13 25 -9 44 3 17 -1 45 -9 66 -9 19 -13 45 -10 56 3 13 1 21 -6 21 -7 0
-9 -4 -6 -10 3 -5 1 -10 -4 -10 -14 0 -14 27 -1 35 13 8 3 87 -12 96 -6 4 -8
14 -5 23 4 9 2 16 -2 16 -5 0 -16 20 -25 45 -8 25 -11 43 -5 40 13 -9 11 59
-2 72 -8 8 -8 13 0 17 6 4 11 13 11 19 0 7 -4 6 -10 -3 -7 -11 -9 -5 -6 23 3
21 1 35 -5 32 -5 -4 -9 -31 -9 -62 0 -31 -3 -53 -7 -49 -13 13 -9 136 5 136 6
0 12 7 12 16 0 9 -5 12 -12 8 -8 -5 -9 0 -6 14 4 12 2 20 -3 16 -5 -3 -9 7 -9
23 0 22 2 25 10 13 5 -8 10 -10 10 -5 0 6 -6 19 -13 30 -7 11 -14 36 -15 55
-3 47 -12 71 -23 65 -5 -4 -9 1 -9 9 0 10 6 13 15 10 11 -5 15 1 15 22 0 27
-1 27 -16 8 -14 -18 -15 -18 -7 6 11 34 6 131 -7 144 -5 5 -10 19 -9 31 0 20
0 20 9 0 7 -17 9 -15 9 13 1 17 -3 32 -8 32 -5 0 -9 26 -8 58 1 115 -4 189
-13 162 l-8 -25 -1 27 c-1 14 -4 35 -7 45 -5 15 -4 16 6 3 9 -12 10 -8 7 20
-3 19 -8 44 -12 55 -6 16 -5 17 4 5 9 -12 10 -8 5 15 -4 17 -11 33 -17 36 -5
4 -5 9 1 13 6 4 9 12 7 19 -2 7 -7 38 -9 71 -3 32 -9 63 -14 70 -5 6 -6 20 -1
31 4 11 8 27 8 35 0 9 -3 8 -8 -4 -7 -19 -8 -19 -13 2 -4 12 -2 22 4 22 6 0 8
7 4 15 -3 9 -6 52 -7 98 -1 45 -6 93 -12 107 l-10 25 -7 -30 c-5 -21 -8 -24
-10 -10 -1 11 -3 31 -6 45 -3 17 -1 21 5 11 16 -25 26 -6 20 39 -4 31 -6 36
-7 16 -3 -54 -15 -17 -18 54 -2 43 1 68 7 65 11 -7 11 6 0 62 -5 27 -5 40 1
36 6 -3 7 4 3 18 -4 13 -12 26 -16 27 -12 5 -11 32 0 32 6 0 6 13 1 33 -5 17
-9 52 -9 77 -1 66 -4 89 -13 84 -4 -3 -5 24 -1 60 3 35 3 71 0 80 -10 24 -37
7 -37 -23 0 -18 -3 -22 -9 -12 -11 16 -2 51 12 51 8 0 8 3 0 11 -6 6 -8 24 -4
42 4 18 4 50 0 72 -5 33 -6 35 -8 11 0 -16 -4 -27 -7 -23 -8 8 17 146 28 153
13 8 9 44 -4 44 -10 0 -9 3 1 9 11 7 11 9 0 13 -11 4 -11 10 -3 24 5 11 8 40
6 67 -4 45 -15 60 -25 35 -4 -10 -6 -10 -6 0 -1 7 6 15 14 18 8 4 13 10 10 15
-3 4 -12 6 -20 2 -11 -4 -15 2 -15 20 0 35 10 58 22 51 7 -5 9 13 5 52 -4 32
-6 67 -7 78 0 12 -5 16 -15 12 -12 -4 -15 2 -14 27 1 23 3 26 6 10 8 -43 24
-23 22 27 -2 48 -12 64 -22 38 -3 -7 -6 2 -6 20 -1 20 3 31 9 27 11 -7 6 122
-5 133 -3 3 -5 -3 -5 -13 0 -15 -2 -17 -12 -6 -11 10 -10 15 3 24 20 15 20 46
4 132 -14 70 -14 122 -1 143 4 7 3 12 -3 12 -5 0 -13 10 -17 22 -6 21 -7 21
-20 3 -8 -10 -14 -14 -14 -8 0 6 -3 18 -6 27 -5 12 0 14 25 11 29 -3 31 -1 31
28 0 29 -1 30 -15 11 -15 -18 -15 -18 -8 0 4 13 3 17 -5 12 -6 -4 -16 3 -23
16 -11 21 -11 22 4 9 15 -12 17 -11 17 2 0 9 8 21 18 27 11 8 13 13 5 16 -8 4
-10 21 -6 55 4 33 2 49 -6 49 -6 0 -11 17 -11 43 0 31 -3 38 -10 27 -8 -13
-10 -12 -10 3 0 9 6 17 13 17 9 0 12 22 13 75 0 41 -3 72 -6 70 -4 -3 -10 9
-14 26 -8 43 -6 70 4 39 7 -22 8 -20 9 15 0 22 -6 51 -14 65 -17 30 -18 40 -6
40 5 0 12 -8 14 -17 3 -10 5 3 6 30 0 26 -3 47 -9 47 -5 0 -7 -7 -4 -15z
m4827 -3182 c18 -9 37 -17 42 -18 6 0 11 -18 12 -40 3 -60 1 -3146 -2 -3333
-2 -132 0 -165 12 -177 19 -20 31 -19 36 3 3 11 5 8 6 -9 1 -19 -5 -28 -19
-32 -12 -3 -20 0 -20 7 0 7 -7 13 -15 13 -8 0 -12 -4 -9 -9 3 -4 -1 -8 -8 -9
-10 0 -10 -2 0 -6 6 -2 9 -10 5 -16 -4 -7 0 -8 13 -3 15 6 17 5 7 -5 -10 -10
-17 -9 -32 8 -11 11 -17 24 -13 29 4 4 0 3 -8 -2 -21 -12 -414 -13 -398 -1 9
6 8 7 -5 3 -10 -3 -23 -6 -28 -6 -6 0 -8 -4 -5 -9 4 -5 -3 -7 -13 -4 -13 3
-21 -1 -24 -14 -3 -11 -4 -8 -4 8 1 19 5 25 15 21 11 -4 10 2 -3 22 -13 19
-21 24 -28 17 -18 -18 -25 -13 -19 14 2 15 0 25 -7 25 -6 0 -11 6 -11 14 0 8
-5 18 -12 22 -7 5 -8 3 -3 -6 5 -9 1 -11 -16 -6 -13 3 -18 3 -11 0 14 -7 16
-34 2 -34 -5 0 -9 3 -9 8 1 4 0 9 -1 12 -9 25 -6 38 8 33 13 -5 12 -2 -3 18
-10 14 -27 26 -38 26 -18 2 -18 1 -2 -17 15 -16 16 -22 5 -35 -11 -13 -11 -18
0 -28 10 -10 11 -9 5 3 -4 8 7 -1 24 -20 18 -19 30 -30 27 -24 -3 7 3 14 13
17 17 4 18 2 11 -19 -5 -13 -5 -26 -1 -29 5 -3 7 -15 3 -27 -3 -14 -2 -19 6
-14 7 4 12 16 12 27 0 11 4 18 9 15 4 -3 6 -17 4 -30 -4 -20 -11 -25 -33 -23
-21 1 -26 5 -18 14 7 9 6 14 -6 18 -9 3 -23 7 -30 9 -10 4 -13 0 -9 -11 5 -12
3 -14 -6 -8 -7 4 -133 7 -280 6 -146 -1 -466 -3 -711 -5 l-445 -2 375 6 375 6
-450 1 c-247 0 -454 2 -460 3 -32 7 -39 -2 -16 -20 13 -11 19 -20 13 -20 -6 0
-17 7 -26 15 -8 8 -21 15 -28 15 -9 0 -9 3 -2 8 6 4 10 17 9 29 -1 14 4 23 12
23 8 0 22 13 31 30 9 16 28 35 41 42 13 7 27 23 32 36 5 14 14 20 21 16 7 -5
8 -3 3 6 -6 10 -4 12 9 7 10 -4 23 1 33 13 10 11 21 20 25 20 4 0 21 14 36 30
30 31 48 40 37 18 -4 -7 0 -5 8 5 8 9 21 17 30 17 24 0 87 32 81 41 -3 5 10 6
28 4 27 -4 29 -3 13 5 -19 9 -18 10 5 9 51 -2 54 -1 39 18 -13 15 -12 16 11 9
38 -12 81 -8 100 9 9 8 23 15 31 15 12 0 11 -2 -1 -10 -10 -7 -4 -8 20 -4 19
3 49 5 65 5 26 0 28 1 10 10 -18 8 -17 9 5 5 14 -2 34 -7 45 -11 l20 -8 -20
16 c-11 9 -32 17 -47 17 -16 0 -28 3 -28 8 0 4 17 7 39 7 24 0 37 -4 34 -11
-4 -11 28 -24 57 -23 10 0 8 3 -5 9 -16 7 -14 9 15 9 23 1 30 -2 22 -8 -11 -7
-10 -10 3 -15 24 -9 37 -7 30 4 -3 6 2 13 12 17 10 4 22 11 26 17 6 7 7 4 3
-7 -5 -14 -1 -16 22 -11 15 4 29 11 30 16 2 4 13 8 24 8 17 0 18 -2 4 -15 -8
-8 -25 -15 -38 -15 -13 -1 -34 -7 -48 -15 -24 -14 -22 -14 30 -12 30 1 57 5
60 8 3 4 21 4 40 1 l35 -6 -35 -7 -35 -6 43 -2 c23 0 42 -5 42 -11 0 -5 5 -10
11 -10 5 0 7 5 3 11 -3 6 6 3 22 -7 15 -11 25 -14 22 -9 -4 6 5 11 20 12 23 1
24 1 7 -6 -19 -8 -19 -9 5 -19 66 -27 199 -74 202 -72 7 7 48 -22 43 -30 -4
-6 1 -7 11 -3 12 4 15 3 10 -5 -5 -8 2 -12 19 -12 14 0 24 -4 20 -9 -7 -13 47
-49 64 -43 9 3 11 0 6 -8 -6 -10 -4 -12 8 -7 17 6 41 -15 30 -27 -4 -4 0 -4 9
-1 14 6 15 10 5 26 -7 11 -20 22 -29 25 -10 3 -18 15 -18 26 0 12 -3 18 -7 14
-5 -4 -8 -13 -8 -19 0 -5 -7 -12 -15 -14 -13 -4 -13 -3 0 6 10 7 11 11 3 11
-7 0 -10 7 -7 15 4 9 17 14 34 13 16 -1 27 -5 24 -9 -2 -4 2 -10 8 -12 8 -3 6
-6 -5 -6 -10 -1 -16 -5 -13 -10 11 -16 45 0 39 17 -12 34 -68 87 -88 84 -16
-2 -20 3 -22 25 -1 26 0 27 13 8 8 -10 14 -14 14 -8 0 5 -9 18 -20 28 -18 16
-20 16 -26 1 -3 -9 -10 -13 -15 -10 -5 3 -9 1 -9 -5 0 -14 -33 -6 -38 9 -3 9
2 11 17 7 15 -4 21 -1 21 11 0 13 2 14 9 4 7 -11 9 -11 14 2 4 9 -7 30 -28 53
-18 21 -32 40 -30 43 2 3 -5 7 -16 7 -10 1 -19 -3 -19 -9 0 -6 -2 -9 -5 -6 -9
9 7 38 17 32 13 -9 -12 39 -26 48 -6 4 -17 6 -23 3 -15 -5 -95 74 -87 87 6 9
48 -30 57 -54 4 -10 7 -10 15 1 6 8 8 21 5 28 -5 12 -7 12 -14 1 -6 -9 -9 -5
-9 13 0 14 -10 37 -23 51 -13 14 -21 31 -19 38 3 7 0 10 -7 6 -11 -7 -15 5
-11 34 1 11 -1 12 -10 4 -9 -9 -9 -17 -1 -32 13 -24 15 -69 3 -76 -5 -3 -7 8
-4 23 2 16 -1 38 -7 50 -8 15 -9 27 -1 40 7 14 7 22 -2 27 -7 5 -8 3 -3 -6 5
-9 4 -11 -4 -6 -6 4 -10 15 -9 24 2 9 -3 17 -11 17 -8 0 -16 6 -19 14 -3 8 0
11 7 7 6 -4 11 -3 11 2 0 6 -6 12 -14 15 -10 4 -16 -3 -19 -21 -3 -21 -4 -19
-6 10 0 20 -5 48 -11 63 -7 17 -7 24 0 20 16 -10 12 11 -5 25 -9 7 -15 20 -14
29 1 9 0 19 -1 24 -4 12 -7 27 -9 38 0 5 -6 7 -13 3 -8 -5 -9 -2 -4 11 7 18 6
18 -14 0 -22 -20 -28 -4 -6 18 13 12 13 18 0 42 -8 15 -14 40 -14 56 0 16 -4
29 -10 29 -5 0 -10 16 -10 36 0 28 -3 35 -15 30 -17 -6 -19 2 -5 24 8 12 10
12 10 1 0 -8 3 -12 6 -8 3 3 -6 25 -20 49 -14 24 -26 36 -26 27 0 -8 5 -20 11
-26 6 -6 9 -19 6 -29 -4 -15 -5 -14 -6 4 0 13 -5 20 -11 17 -6 -3 -10 5 -10
19 0 14 7 29 15 33 13 7 12 12 -1 38 -15 27 -16 43 -13 125 3 59 -5 149 -13
144 -4 -3 -7 32 -6 78 l2 83 6 -70 c6 -66 7 -64 8 40 1 74 -1 105 -8 95 -8
-13 -10 -13 -10 2 0 9 4 19 9 23 5 3 7 22 4 42 -4 24 -3 34 4 30 8 -5 8 6 2
34 -10 41 -3 71 11 49 5 -8 9 -7 13 4 4 9 1 16 -5 16 -7 0 -6 5 2 15 7 8 10
24 7 34 -3 11 -1 21 4 23 5 2 10 21 11 43 2 22 8 43 13 48 6 4 6 10 -2 15 -9
6 -7 12 7 22 16 11 19 22 15 50 -3 22 -2 28 3 16 7 -15 10 -12 19 18 6 20 7
34 2 31 -5 -4 -6 7 -3 23 4 18 0 41 -10 61 -9 17 -13 31 -8 31 9 0 32 -58 33
-86 0 -10 8 4 17 31 10 28 23 60 30 72 6 12 12 29 12 39 0 9 11 27 25 40 14
13 25 29 25 36 0 10 -2 10 -9 0 -6 -11 -9 -9 -14 7 -6 23 0 31 22 30 12 0 11
-3 -4 -9 -17 -7 -17 -9 -3 -9 10 -1 22 9 29 20 7 15 8 19 0 15 -7 -5 -9 -1 -5
8 5 12 0 16 -17 16 l-24 0 25 13 c30 15 38 47 16 59 -9 5 -16 14 -16 21 0 7 4
6 11 -3 7 -11 8 -5 4 23 -2 20 -1 37 4 37 15 0 24 -109 10 -126 -10 -12 -10
-17 1 -27 8 -8 11 -8 7 -1 -4 7 0 17 9 25 19 16 41 54 25 45 -6 -4 -11 -2 -11
3 0 6 7 11 16 11 8 0 13 4 9 10 -7 12 31 51 41 42 3 -4 1 4 -6 17 -9 17 -9 26
0 35 8 8 10 7 5 -6 -10 -25 2 -22 31 7 14 14 27 38 29 55 6 47 13 64 35 78 16
10 20 10 20 -2 0 -8 -7 -16 -15 -20 -8 -3 -15 -15 -15 -26 0 -14 -4 -19 -12
-14 -7 5 -8 3 -3 -6 6 -10 11 -8 24 6 9 11 25 28 36 38 11 10 15 16 9 12 -8
-4 -11 3 -10 18 0 13 6 24 11 23 6 -1 9 3 8 10 -1 6 4 17 12 23 12 10 15 10
15 -2 0 -8 -5 -19 -12 -26 -7 -7 -8 -12 -2 -12 5 0 2 -5 -6 -10 -8 -5 -10 -10
-4 -10 6 0 22 15 35 34 13 19 27 32 31 30 4 -3 5 3 1 12 -5 14 -3 16 11 11 11
-5 16 -3 14 5 -6 17 -38 19 -38 2 0 -8 -4 -14 -10 -14 -14 0 -13 12 6 48 8 18
12 37 8 43 -4 8 -3 9 4 5 7 -4 17 -4 23 0 8 4 7 9 -2 15 -10 6 -10 9 -2 9 21
0 26 -21 7 -34 -9 -7 -19 -22 -20 -33 -3 -19 -1 -20 36 -11 22 6 40 17 40 24
0 8 6 14 14 14 22 0 28 17 12 33 -13 13 -12 17 5 36 11 11 27 21 35 21 8 0 12
5 9 11 -4 6 2 5 14 -3 12 -7 17 -14 11 -16 -5 -2 -10 -8 -10 -14 0 -6 6 -5 15
2 9 7 14 19 11 27 -3 8 -1 11 4 8 5 -3 20 1 33 10 13 8 27 12 32 8 4 -5 6 -3
2 2 -8 15 7 36 28 39 11 2 20 13 22 27 2 13 8 28 13 33 4 4 6 14 4 21 -3 7 2
15 12 19 13 5 14 3 6 -6 -8 -11 -2 -14 29 -14 44 -2 49 3 17 16 -18 7 -14 8
18 5 39 -4 43 -2 50 23 4 15 6 34 5 42 -1 11 0 12 7 2 7 -10 16 -9 45 3 22 9
37 11 37 5 0 -5 -10 -10 -22 -10 -19 0 -20 -2 -8 -11 12 -8 10 -9 -8 -4 -18 5
-25 2 -29 -14 -3 -11 -9 -19 -12 -16 -4 2 -8 -2 -8 -9 0 -11 4 -12 19 -3 10 7
18 17 18 24 0 7 6 10 14 7 8 -3 17 0 21 5 3 6 11 8 17 5 7 -5 8 -2 3 6 -6 10
-4 12 10 6 15 -5 16 -4 6 8 -15 18 3 32 36 28 16 -3 21 1 18 15 -2 10 -4 20
-4 23 -1 3 -6 -2 -11 -10 -5 -8 -10 -10 -10 -4 0 10 10 24 17 24 2 0 18 -8 36
-17z"/>
<path d="M1705 9138 c-26 -123 -45 -239 -50 -318 -8 -112 -13 -177 -20 -245
-19 -203 -16 -330 14 -570 37 -292 45 -341 81 -475 16 -58 40 -150 55 -205 15
-55 42 -136 60 -180 18 -44 45 -118 60 -165 16 -46 41 -107 58 -135 16 -27 33
-59 39 -70 5 -11 20 -38 34 -60 l24 -40 -5 50 c-3 28 -12 110 -21 184 -15 125
-15 157 1 361 8 102 42 245 80 340 51 127 77 180 85 180 8 0 60 -168 95 -309
14 -58 30 -110 35 -116 5 -7 16 -29 24 -51 24 -69 144 -348 170 -394 13 -25
43 -81 66 -124 127 -244 217 -394 272 -451 l39 -40 -5 35 c-11 71 -31 396 -41
675 -8 183 -12 237 -25 310 -6 33 -17 101 -25 150 -38 245 -45 284 -55 340 -6
33 -15 87 -21 120 -6 33 -14 61 -20 63 -5 2 -6 14 -3 27 3 12 1 26 -5 29 -6 4
-11 -1 -12 -11 0 -14 -2 -14 -9 5 -5 12 -12 22 -14 22 -3 0 -3 -6 0 -14 4 -11
0 -13 -15 -9 -11 3 -18 10 -14 15 3 6 0 9 -8 6 -7 -2 -21 5 -31 16 -10 12 -17
16 -18 10 0 -16 -30 -13 -30 3 0 8 5 11 10 8 15 -10 12 3 -7 25 -10 11 -27 20
-38 19 -17 -1 -16 -2 5 -9 15 -5 18 -8 8 -9 -31 -2 -48 11 -44 33 2 11 1 15
-1 8 -7 -19 -29 -8 -25 12 2 9 -4 16 -13 16 -8 0 -15 -6 -15 -12 0 -7 -5 -5
-11 5 -5 9 -17 17 -24 17 -8 0 -14 6 -12 12 1 7 -7 14 -18 16 -19 3 -49 48
-40 61 2 4 -12 5 -31 3 -26 -3 -34 -1 -34 12 0 9 -4 16 -10 16 -5 0 -10 6 -10
14 0 7 -8 16 -19 19 -10 2 -25 17 -32 33 -8 16 -25 34 -38 41 -14 6 -26 19
-27 29 -2 10 -17 28 -33 42 -17 13 -28 28 -25 33 3 6 -3 13 -14 16 -11 2 -25
16 -31 29 -6 13 -15 24 -21 24 -6 0 -8 5 -5 10 3 6 -3 10 -14 10 -25 0 -36 16
-15 24 8 3 13 10 9 15 -3 6 -12 8 -20 5 -18 -7 -37 37 -29 63 5 14 4 15 -4 4
-7 -9 -12 -10 -16 -2 -4 6 -4 11 0 11 4 0 0 8 -8 18 -8 9 -18 24 -22 32 -19
40 -36 64 -37 50 0 -8 -7 7 -15 33 -13 41 -18 47 -35 42 -17 -6 -20 -4 -15 13
4 10 3 27 -1 37 -6 18 -7 18 -14 -1 -6 -16 -8 -14 -9 11 -2 30 -2 34 3 58 1 6
-4 11 -10 10 -7 -2 -13 2 -13 7 0 6 7 10 15 10 8 0 15 5 15 10 0 6 -7 10 -16
10 -11 0 -14 4 -8 13 5 7 0 4 -10 -8 l-19 -20 6 23 c4 12 10 31 13 42 4 12 2
20 -5 20 -6 0 -13 -10 -16 -22z"/>
<path d="M2985 7880 c-3 -5 -3 -15 1 -22 4 -7 3 -8 -4 -4 -7 4 -12 2 -12 -4 0
-6 6 -13 14 -16 8 -3 17 -20 20 -39 4 -18 10 -35 14 -37 4 -2 18 -25 32 -53
14 -27 38 -72 54 -100 45 -79 116 -204 152 -270 39 -69 40 -63 20 86 -15 103
-18 133 -33 339 -4 58 -9 95 -11 82 -2 -12 -7 -20 -12 -17 -5 3 -12 -4 -15
-15 -5 -16 -10 -18 -20 -10 -7 6 -20 8 -29 4 -9 -3 -16 -1 -16 6 0 7 -8 9 -19
5 -12 -3 -21 0 -25 10 -3 8 -15 15 -27 15 -14 0 -19 5 -16 15 4 8 2 17 -3 20
-6 4 -10 1 -10 -6 0 -7 -3 -9 -7 -6 -3 4 -12 -1 -20 -11 -13 -15 -14 -14 -8
11 5 26 -7 37 -20 17z"/>
<path d="M4090 2140 c-130 -14 -271 -61 -403 -133 -127 -69 -147 -81 -147 -87
0 -3 27 -32 59 -64 l59 -59 30 22 c82 58 272 138 380 160 166 34 371 -11 567
-125 237 -138 346 -175 530 -181 190 -7 307 25 510 138 339 190 497 219 740
137 60 -20 178 -77 225 -108 136 -91 321 -159 462 -170 125 -10 174 -5 283 32
96 32 157 61 245 118 223 145 439 197 638 155 109 -22 197 -59 337 -140 214
-122 349 -165 524 -165 177 0 290 34 506 153 244 135 365 173 520 165 109 -6
239 -47 358 -113 45 -25 101 -55 125 -67 l42 -22 49 55 c26 29 49 58 50 63 3
11 -78 58 -214 125 -184 91 -297 116 -486 108 -183 -7 -302 -46 -515 -167
-154 -87 -217 -113 -326 -136 -155 -32 -291 0 -505 119 -278 153 -391 189
-603 189 -213 0 -366 -50 -653 -215 -257 -148 -418 -141 -714 31 -248 144
-394 187 -612 179 -199 -7 -332 -51 -555 -183 -295 -176 -506 -174 -816 7
-251 146 -473 204 -690 179z"/>
<path d="M4115 1713 c-107 -12 -267 -53 -289 -74 -11 -10 19 -45 77 -91 l38
-30 66 16 c137 35 278 31 408 -11 52 -16 187 -79 240 -110 164 -98 265 -138
433 -172 169 -34 396 23 622 157 356 212 575 213 935 6 131 -75 244 -125 325
-144 30 -7 68 -16 84 -21 38 -12 209 -12 238 0 13 5 43 15 68 22 62 17 203 83
256 119 200 134 410 196 592 173 140 -18 222 -50 427 -165 66 -38 123 -68 128
-68 5 0 25 -7 45 -16 68 -30 77 -33 132 -44 30 -7 71 -16 91 -21 73 -18 171
-10 329 30 77 19 195 74 315 146 229 137 438 174 642 114 l72 -22 61 53 c33
28 60 56 60 60 0 5 -24 18 -53 29 -199 74 -396 83 -592 26 -86 -25 -232 -89
-285 -126 -49 -33 -226 -117 -285 -135 -41 -12 -94 -18 -165 -18 -144 0 -213
23 -433 145 -225 126 -374 171 -562 172 -210 1 -354 -46 -650 -212 -143 -80
-212 -102 -330 -104 -140 -2 -200 19 -435 155 -195 112 -352 158 -537 159
-198 0 -333 -44 -608 -199 -175 -98 -292 -130 -435 -117 -103 10 -188 41 -338
124 -221 122 -325 163 -482 186 -91 14 -140 16 -205 8z"/>
<path d="M6039 1216 c-155 -36 -290 -89 -421 -168 -172 -105 -282 -142 -423
-142 -139 0 -251 37 -414 136 -135 82 -322 156 -431 172 l-45 6 30 -25 c80
-67 357 -242 545 -345 181 -98 190 -101 343 -96 115 3 144 7 227 35 52 17 133
52 180 77 47 26 126 69 175 95 50 27 128 61 175 76 73 24 102 28 205 28 167 0
256 -30 485 -162 175 -101 282 -138 437 -153 180 -17 268 9 515 148 248 140
331 167 518 166 115 0 133 -3 223 -33 53 -19 145 -61 205 -94 285 -160 392
-193 600 -185 l107 3 110 57 c207 105 528 305 625 388 l35 29 -35 -8 c-19 -5
-60 -14 -90 -21 -121 -27 -223 -71 -390 -167 -168 -97 -263 -126 -405 -126
-126 0 -211 27 -375 117 -220 122 -311 159 -462 191 -222 46 -491 -17 -755
-177 -157 -95 -265 -131 -393 -131 -110 1 -183 24 -325 104 -217 122 -342 175
-470 201 -79 16 -244 18 -306 4z"/>
<path d="M8025 790 c-157 -19 -277 -64 -502 -188 -319 -176 -448 -175 -760 6
-248 144 -394 187 -612 179 -207 -7 -344 -55 -590 -205 l-35 -21 28 -10 c15
-6 60 -22 101 -35 l74 -24 64 34 c274 145 489 150 752 16 39 -20 81 -43 95
-52 137 -91 321 -159 462 -170 183 -15 339 28 511 139 337 217 588 236 911 71
l79 -41 99 32 c54 18 98 35 98 38 0 6 -154 94 -235 134 -161 79 -371 117 -540
97z"/>
</g>
</svg>
