<?xml version="1.0" standalone="no"?>
<!DOCTYPE svg PUBLIC "-//W3C//DTD SVG 20010904//EN"
 "http://www.w3.org/TR/2001/REC-SVG-20010904/DTD/svg10.dtd">
<svg version="1.0" xmlns="http://www.w3.org/2000/svg"
 width="200.000000pt" height="100.000000pt" viewBox="0 0 200.000000 100.000000"
 preserveAspectRatio="xMidYMid meet">
<metadata>
Created by potrace 1.12, written by Peter Selinger 2001-2015
</metadata>
<g transform="translate(0.000000,100.000000) scale(0.100000,-0.100000)"
fill="#000000" stroke="none">
<path d="M1370 315 c0 -69 2 -125 4 -125 2 0 11 -3 20 -6 13 -5 16 2 16 35 0
23 4 41 10 41 13 0 48 -39 56 -62 3 -11 15 -18 30 -18 24 0 24 0 7 28 -9 15
-25 37 -36 49 -18 20 -18 23 -3 38 9 9 21 25 26 36 9 16 7 19 -12 19 -15 0
-29 -11 -40 -30 -27 -48 -38 -37 -38 39 0 65 -7 81 -36 81 -2 0 -4 -56 -4
-125z"/>
<path d="M313 398 c-21 -10 -28 -31 -23 -68 2 -22 30 -40 73 -47 51 -8 71 -27
55 -53 -7 -10 -20 -21 -30 -24 -24 -6 -79 10 -90 26 -5 9 -8 6 -8 -10 0 -29
40 -45 99 -39 51 6 71 26 71 72 0 35 -21 52 -79 61 -49 8 -69 27 -51 49 17 21
96 20 108 -1 8 -14 10 -13 15 5 4 17 0 24 -19 32 -33 12 -93 11 -121 -3z"/>
<path d="M1031 351 c-13 -3 -28 -16 -32 -29 -10 -26 -4 -28 18 -6 9 8 27 14
42 12 34 -4 40 -34 9 -43 -63 -18 -78 -28 -78 -52 0 -41 23 -55 85 -51 l55 3
0 77 c0 71 -2 77 -22 83 -42 12 -53 13 -77 6z"/>
<path d="M1580 351 c-16 -4 -26 -15 -29 -31 -3 -24 -3 -25 17 -7 12 11 31 17
49 15 41 -5 35 -31 -11 -46 -52 -17 -65 -29 -61 -54 8 -39 25 -49 86 -46 l59
2 0 74 0 73 -35 15 c-37 15 -38 15 -75 5z"/>
</g>
</svg>
