<?xml version="1.0" standalone="no"?>
<!DOCTYPE svg PUBLIC "-//W3C//DTD SVG 20010904//EN"
 "http://www.w3.org/TR/2001/REC-SVG-20010904/DTD/svg10.dtd">
<svg version="1.0" xmlns="http://www.w3.org/2000/svg"
 width="520.000000pt" height="423.000000pt" viewBox="0 0 520.000000 423.000000"
 preserveAspectRatio="xMidYMid meet">
<metadata>
Created by potrace 1.12, written by Peter Selinger 2001-2015
</metadata>
<g transform="translate(0.000000,423.000000) scale(0.100000,-0.100000)"
fill="#000000" stroke="none">
<path d="M3155 3070 c-27 -28 -34 -30 -104 -30 -90 0 -139 -20 -204 -79 -52
-48 -86 -120 -94 -196 -10 -92 3 -135 73 -252 77 -127 99 -152 165 -188 43
-23 59 -26 122 -23 l72 3 3 -50 c2 -43 -4 -63 -43 -139 -30 -60 -45 -101 -45
-127 0 -49 19 -51 76 -10 l39 29 115 -8 c63 -4 122 -11 131 -14 11 -5 19 -25
23 -54 3 -26 20 -85 36 -132 23 -65 30 -103 30 -160 0 -99 20 -171 81 -303 37
-78 50 -115 46 -135 -3 -15 -18 -77 -33 -138 l-27 -111 -115 -7 c-180 -10
-389 -60 -518 -123 -115 -56 -172 -53 1057 -53 733 0 1130 3 1123 10 -18 18
-219 123 -248 129 -29 6 -30 9 -48 116 -22 128 -20 166 21 298 17 54 33 128
36 165 3 37 13 117 22 178 20 144 8 223 -49 335 -94 183 -204 254 -581 373
-99 31 -197 56 -220 56 -28 0 -53 8 -74 23 -51 35 -120 119 -127 153 -10 45
-64 103 -111 118 -58 20 -303 10 -368 -15 -26 -11 -69 -19 -95 -19 -26 0 -80
-9 -121 -20 -108 -29 -134 -27 -175 15 -42 42 -58 92 -45 139 14 49 29 57 125
67 104 11 170 37 184 74 17 45 11 75 -19 106 -39 39 -78 39 -116 -1z m916
-1699 c35 -27 92 -78 125 -112 58 -60 64 -71 94 -168 47 -153 54 -146 -145
-146 l-166 0 -8 35 c-63 251 -64 264 -17 366 19 41 39 74 44 74 5 0 38 -22 73
-49z m453 -27 c9 -3 16 -17 16 -30 0 -31 33 -39 87 -20 50 18 50 18 59 -92 4
-47 2 -93 -5 -119 -10 -35 -9 -48 4 -72 8 -17 15 -46 15 -66 0 -32 -2 -35 -29
-35 -71 0 -92 11 -112 57 -10 25 -19 58 -19 73 0 16 -5 32 -10 35 -22 13 -62
110 -66 159 -4 40 -1 58 15 84 23 35 22 35 45 26z"/>
<path d="M1240 3021 c0 -5 19 -12 43 -16 49 -9 77 -21 77 -37 0 -6 -7 -5 -17
3 -10 8 4 -11 30 -41 54 -61 134 -218 153 -297 11 -47 10 -52 -7 -56 -20 -5
-26 7 -9 18 16 10 12 25 -6 25 -11 0 -14 5 -10 16 5 13 -10 42 -41 83 -1 2
-10 -2 -19 -10 -15 -12 -16 -11 -10 8 12 39 -135 173 -190 173 -4 0 -1 -7 7
-16 7 -8 -10 -1 -38 16 -35 22 -60 30 -79 28 l-29 -4 28 -12 c15 -6 27 -16 27
-22 0 -13 3 -14 -54 15 -49 25 -90 30 -133 19 -27 -7 -31 -24 -5 -24 9 -1 28
-7 42 -16 19 -11 21 -14 5 -10 -59 14 -104 17 -110 7 -4 -7 3 -11 17 -11 53
-1 49 -18 -6 -24 -41 -6 -59 -13 -67 -27 -10 -19 -9 -19 27 -4 43 18 44 18 44
5 0 -5 -15 -16 -32 -23 -18 -8 -39 -21 -46 -30 -11 -13 -8 -15 30 -11 24 2 35
1 25 -2 -11 -3 -16 -12 -13 -20 3 -7 -3 -18 -14 -24 -26 -14 -42 -99 -35 -185
11 -119 13 -139 20 -167 5 -18 3 -28 -4 -28 -6 0 -11 7 -11 15 0 8 -4 15 -9
15 -5 0 -14 14 -22 32 -7 17 -15 26 -17 20 -6 -18 -22 -4 -22 19 0 10 -7 19
-15 19 -8 0 -15 5 -15 11 0 16 -39 69 -51 69 -6 0 -5 -8 1 -21 7 -11 8 -24 4
-27 -4 -4 -9 -1 -11 6 -3 6 -11 12 -18 12 -8 0 -19 9 -25 20 -6 11 -15 20 -21
20 -6 0 -7 -5 -3 -12 5 -8 0 -9 -17 -4 -41 13 -64 12 -61 -3 2 -8 -3 -11 -11
-8 -8 3 -31 -3 -53 -14 l-39 -18 65 5 c37 3 60 2 53 -3 -8 -6 4 -16 37 -31 88
-40 239 -193 226 -228 -10 -26 -29 -16 -22 12 6 21 4 25 -8 21 -10 -4 -16 -1
-16 8 0 7 -13 23 -29 35 -28 19 -30 19 -40 3 -9 -16 -10 -16 -11 3 0 22 -24
39 -41 28 -5 -3 -9 -1 -9 3 0 17 -57 40 -105 42 -37 1 -46 -1 -35 -9 11 -7 -2
-8 -45 -4 -33 3 -71 1 -85 -4 -24 -10 -24 -11 10 -13 27 -1 22 -3 -24 -10 -87
-13 -149 -59 -68 -51 28 2 33 1 22 -7 -8 -6 -27 -11 -42 -11 -15 0 -34 -7 -43
-16 -20 -21 -13 -29 13 -15 12 6 27 11 34 11 7 0 -3 -8 -21 -18 -19 -10 -41
-28 -49 -40 -16 -25 -1 -30 18 -7 23 28 31 15 9 -15 -22 -30 -20 -55 3 -32 17
17 33 15 18 -3 -9 -10 -9 -15 -1 -15 8 0 8 -5 0 -18 -8 -13 -8 -33 2 -77 l13
-60 6 55 c13 106 73 181 178 220 29 11 76 20 105 20 51 -1 52 -1 71 -41 23
-51 15 -61 -12 -14 -21 34 -60 51 -48 20 6 -17 -9 -21 -19 -5 -3 6 -11 10 -17
10 -6 0 -2 -10 10 -23 33 -35 26 -41 -13 -11 -21 16 -41 24 -51 20 -15 -6 -14
-10 7 -33 l24 -26 -27 17 c-31 20 -63 18 -63 -4 0 -8 10 -19 23 -25 12 -5 22
-13 22 -17 0 -11 -14 -10 -26 2 -14 14 -82 0 -89 -18 -3 -8 0 -19 6 -23 8 -5
4 -9 -12 -12 -21 -4 -20 -4 6 -6 l30 -2 -32 -14 c-34 -15 -44 -35 -18 -35 8 0
15 -4 15 -10 0 -5 -7 -10 -16 -10 -13 0 -15 -6 -9 -27 9 -38 15 -41 27 -18 20
36 97 104 149 131 28 14 53 23 56 21 2 -3 -20 -31 -50 -63 -30 -33 -59 -69
-66 -81 -10 -20 -9 -23 9 -23 11 0 20 -4 20 -10 0 -5 -9 -10 -20 -10 -22 0
-27 -15 -7 -23 9 -4 9 -6 0 -6 -7 -1 -13 -6 -13 -11 0 -6 11 -8 25 -4 15 4 25
2 25 -5 0 -6 -6 -11 -14 -11 -8 0 -18 -5 -22 -12 -4 -7 -3 -8 4 -4 7 4 12 1
12 -8 0 -8 -6 -16 -12 -19 -20 -6 54 -107 114 -155 28 -23 53 -41 55 -38 9 9
-23 86 -37 87 -10 0 -11 2 -2 6 7 2 12 22 12 45 0 38 -1 40 -25 34 -14 -4 -25
-2 -25 3 0 5 11 12 25 15 19 5 25 13 25 32 0 23 -3 25 -25 20 -15 -4 -25 -2
-25 4 0 6 11 15 25 20 36 14 32 33 -7 28 -28 -5 -29 -4 -13 9 11 7 26 13 34
14 11 0 10 3 -4 8 -19 8 -19 8 3 20 12 6 22 20 22 30 0 9 11 28 25 41 14 13
25 30 25 37 0 8 5 11 10 8 6 -3 10 -1 10 6 0 7 3 9 7 6 3 -4 12 -2 20 5 25 20
26 -1 3 -54 -20 -47 -22 -63 -16 -142 6 -94 11 -110 26 -86 7 11 10 6 10 -20
0 -19 5 -42 10 -50 9 -13 11 -13 20 0 7 11 10 7 11 -20 1 -25 3 -28 6 -12 4
19 7 21 19 11 7 -6 11 -15 8 -20 -8 -13 6 -49 19 -49 8 0 8 3 -1 12 -15 15
-16 28 -2 28 6 0 10 -6 10 -14 0 -25 42 -68 61 -63 11 3 19 0 19 -6 0 -7 15
-19 32 -27 18 -8 33 -24 34 -35 2 -11 10 -49 19 -85 8 -36 17 -74 20 -85 2
-11 9 -38 15 -60 6 -22 12 -49 14 -60 2 -11 14 -49 26 -85 12 -36 23 -74 24
-85 2 -11 15 -52 29 -92 24 -68 24 -71 6 -76 -29 -8 -23 -24 12 -31 25 -5 29
-9 20 -19 -7 -9 -7 -17 0 -24 7 -7 2 -9 -18 -6 -30 5 -27 1 24 -35 10 -7 13
-10 6 -7 -6 3 -31 8 -54 11 -48 7 -47 -10 2 -21 44 -10 29 -17 -49 -25 -37 -4
100 -7 303 -7 238 0 334 3 270 7 -55 4 -121 8 -147 9 -52 1 -65 17 -20 24 22
3 20 4 -10 6 -37 1 -49 13 -28 26 6 3 10 14 10 24 0 28 24 71 40 71 13 0 13 2
1 9 -12 8 -10 20 14 73 120 270 223 431 384 603 40 43 46 46 49 28 2 -12 9
-26 16 -32 11 -9 15 -4 21 21 4 18 7 37 6 41 -1 5 10 18 24 29 14 11 25 28 25
39 0 11 5 17 10 14 6 -3 10 -2 10 2 0 5 14 17 30 26 17 10 30 25 30 33 0 16 9
18 28 6 7 -5 10 -15 7 -24 -4 -9 3 -19 17 -26 21 -11 21 -11 -7 -5 -16 3 -27
3 -24 -1 4 -4 -3 -34 -16 -66 -13 -32 -21 -61 -18 -64 7 -7 53 15 53 26 0 4 8
8 18 8 27 1 55 27 48 45 -3 9 -2 14 3 10 5 -3 11 1 14 7 3 10 8 10 17 2 9 -9
8 -18 -3 -40 -24 -47 -95 -122 -138 -146 -39 -22 -54 -45 -21 -34 16 6 16 5 0
-8 -27 -20 -22 -29 17 -24 19 2 36 -1 38 -7 2 -5 14 1 25 15 20 23 21 24 22 5
l1 -20 9 20 c5 11 9 14 9 6 1 -11 4 -11 17 0 8 7 13 20 11 30 -3 12 0 16 9 12
10 -4 12 0 8 13 -6 16 -5 17 7 7 21 -20 31 -15 27 15 -2 22 1 26 16 24 16 -3
18 1 12 28 -5 27 -4 30 8 21 11 -9 15 -6 20 14 4 14 4 30 1 35 -3 5 -1 11 5
15 5 3 8 18 4 33 -5 26 -5 26 10 8 9 -11 16 -29 16 -39 0 -11 8 -26 18 -34 16
-14 16 -14 0 -9 -28 8 -21 -13 7 -24 14 -5 25 -14 25 -20 0 -13 -6 -13 -30 2
-29 19 -36 1 -10 -27 13 -14 20 -28 16 -32 -4 -4 -12 0 -17 10 -13 23 -26 22
-34 -3 -5 -15 0 -26 17 -40 25 -21 18 -26 -12 -10 -15 8 -20 5 -29 -22 -8 -23
-8 -35 2 -46 10 -13 9 -15 -5 -9 -12 4 -22 -4 -37 -29 -24 -41 -21 -42 27 -9
20 14 48 25 63 25 27 0 59 27 59 50 0 7 3 10 7 7 11 -11 32 14 26 30 -4 11 -2
14 5 9 16 -10 15 7 0 23 -11 11 -8 12 12 6 22 -7 23 -6 11 9 -12 14 -11 16 5
16 18 1 18 1 2 14 -22 16 -23 30 -3 22 26 -10 17 38 -16 85 l-32 44 31 -29
c37 -35 93 -161 103 -231 5 -40 8 -46 14 -28 4 13 11 20 16 18 4 -3 6 6 3 20
-3 18 -1 23 10 19 11 -4 13 0 9 15 -3 12 -9 24 -14 27 -16 9 -10 44 5 38 8 -3
12 -12 9 -20 -3 -8 -1 -14 4 -14 15 0 15 60 -1 66 -8 3 -12 12 -9 20 3 10 -2
14 -18 14 l-24 1 22 12 c31 17 13 47 -30 48 -18 0 -25 3 -17 6 8 2 21 7 29 9
22 7 -7 34 -38 35 -17 1 -20 3 -8 6 22 6 22 8 -5 38 -15 17 -28 23 -41 19 -13
-4 -17 -2 -12 6 4 6 -1 17 -11 25 -16 11 -22 11 -37 -2 -9 -9 -19 -14 -22 -11
-3 3 4 13 14 22 19 18 23 17 109 -19 49 -20 113 -55 143 -77 30 -23 47 -33 39
-23 -13 16 -13 18 0 14 8 -3 25 -34 37 -70 l22 -64 1 47 c0 26 -5 48 -12 50
-8 3 -8 9 -1 22 17 30 3 62 -35 85 -33 20 -34 22 -9 17 15 -4 27 -2 27 4 0 5
-10 12 -22 14 -13 3 -32 7 -43 9 -14 3 -12 5 8 6 15 0 27 6 27 11 0 14 -53 12
-69 -2 -11 -11 -13 -10 -9 2 3 8 14 16 26 18 12 2 22 7 22 12 0 20 -84 28 -95
10 -4 -6 -11 -7 -17 -4 -7 5 -2 11 13 17 22 9 19 11 -26 17 -27 4 -62 11 -76
15 -16 4 -30 2 -34 -5 -5 -8 -10 -8 -21 1 -13 11 -56 8 -124 -8 -14 -3 -23 -3
-20 0 3 3 60 22 125 42 66 20 124 41 130 46 11 11 -117 5 -136 -7 -7 -4 -10
-2 -7 6 2 7 20 19 39 25 77 27 132 57 119 65 -11 7 -45 6 -45 -1 0 -1 -11 -3
-25 -4 -14 -2 -36 -7 -50 -11 -24 -7 -24 -6 -9 12 9 10 26 42 38 69 12 28 27
57 32 65 16 27 39 83 36 87 -3 2 -22 -20 -44 -49 -90 -121 -159 -212 -171
-227 -11 -14 -11 -12 -2 7 9 18 9 130 1 182 -1 3 -6 -2 -11 -10 -7 -11 -10 -6
-10 20 0 36 -19 81 -21 50 0 -8 -7 1 -14 20 -7 19 -14 28 -15 20 0 -8 -7 -1
-15 15 -7 17 -14 23 -15 15 0 -9 -7 -4 -15 12 -15 26 -98 72 -118 65 -5 -1 9
-16 32 -31 23 -16 41 -32 41 -37 0 -4 2 -13 5 -21 4 -10 -9 -13 -52 -15 l-58
-1 35 19 35 20 -39 -4 c-31 -3 -35 -1 -22 8 39 29 -7 41 -53 14 l-36 -21 25
27 c21 22 22 28 10 35 -21 14 -31 12 -53 -7 -19 -17 -19 -17 -13 4 8 25 -17
38 -57 28 -14 -4 -28 -2 -32 5 -4 7 -18 9 -36 5 -39 -9 -37 9 4 28 53 25 146
40 249 41 53 1 89 4 80 8 -14 5 -12 7 6 7 12 1 41 -8 63 -20 23 -11 43 -18 45
-16 3 3 -17 23 -43 46 -40 34 -55 41 -93 42 -41 0 -43 1 -20 11 35 15 7 22
-33 9 -30 -10 -31 -10 -12 5 l20 16 -20 -5 c-11 -2 -29 -8 -40 -13 -18 -7 -18
-6 -6 9 12 15 10 17 -16 17 -16 0 -38 -7 -51 -15 -20 -14 -21 -14 -16 0 8 19
-16 20 -42 0 -22 -17 -38 -20 -29 -5 7 11 -26 0 -75 -25 -40 -21 -38 -6 6 36
39 37 85 97 66 85 -7 -4 -12 -2 -12 6 0 8 -5 6 -11 -4 -5 -10 -15 -18 -21 -18
-6 0 -19 -9 -28 -20 -13 -15 -20 -18 -26 -9 -4 8 -11 4 -20 -12 -7 -13 -13
-19 -13 -14 0 6 28 59 63 119 47 82 61 113 52 122 -8 9 -18 4 -39 -20 -15 -17
-36 -40 -46 -51 -10 -11 -21 -28 -24 -38 -4 -10 -12 -15 -17 -12 -8 5 -7 14 3
28 13 21 33 157 23 157 -3 0 -28 -73 -56 -162 -29 -90 -53 -167 -55 -173 -2
-5 -4 0 -4 13 -1 12 -5 22 -11 22 -5 0 -10 16 -10 35 0 19 -5 35 -11 35 -7 0
-9 12 -5 34 4 18 2 44 -3 57 l-10 24 0 -27 c-2 -52 -20 -28 -23 29 -3 57 -23
84 -31 41 -3 -18 -5 -16 -6 9 -1 36 -17 53 -24 26 -3 -14 -6 -11 -11 10 -5 15
-15 27 -22 27 -11 0 -12 -4 -4 -19 13 -25 13 -31 0 -31 -5 0 -10 6 -10 13 0
19 -43 57 -63 57 -9 0 -17 -6 -17 -12 0 -9 -3 -9 -8 -2 -9 13 -102 18 -102 5z
m-61 -271 c59 -11 160 -52 143 -58 -7 -2 -12 -20 -13 -40 l-1 -37 -10 35 c-14
49 -24 58 -62 58 l-34 0 14 -34 c19 -45 13 -43 -20 6 -16 25 -34 40 -46 40
-20 0 -20 -1 -5 -31 22 -42 14 -45 -20 -9 -16 17 -37 30 -47 30 -21 0 -22 -7
-3 -40 23 -41 17 -46 -16 -14 -30 28 -31 28 -19 4 l13 -25 -27 24 c-23 21 -29
23 -52 12 -20 -9 -24 -15 -15 -25 9 -11 6 -12 -16 -9 l-28 4 28 -16 c15 -9 27
-17 27 -18 0 -2 -15 -1 -34 1 -32 4 -36 1 -50 -33 -9 -20 -15 -39 -15 -43 1
-4 0 -18 -1 -32 -2 -21 -4 -19 -15 15 -21 62 -18 88 15 133 63 87 182 126 309
102z m-33 -205 c-20 -14 -46 -25 -58 -25 -12 0 -40 -11 -64 -25 -31 -18 -44
-21 -47 -12 -3 7 -6 5 -6 -5 -1 -10 -5 -18 -10 -18 -5 0 -11 -10 -15 -23 -3
-13 -13 -24 -21 -24 -14 0 -15 9 -10 51 4 28 11 55 15 60 20 21 119 45 184 46
l69 0 -37 -25z m618 -212 c-32 -28 -64 -73 -64 -87 0 -5 8 -2 18 7 17 16 20
15 40 -6 28 -30 28 -40 0 -31 -20 6 -21 5 -9 -10 8 -10 9 -16 3 -16 -6 0 -9
-7 -6 -15 4 -10 20 -15 49 -15 34 0 46 -5 59 -25 9 -13 16 -26 16 -27 0 -2
-24 -3 -52 -3 -49 0 -53 -2 -51 -22 3 -26 -7 -29 -25 -11 -10 10 -14 10 -21 0
-6 -9 -12 -7 -27 9 -19 22 -19 22 4 17 17 -5 22 -2 22 13 0 10 -9 23 -20 29
-22 12 -27 30 -7 30 8 0 13 13 12 33 0 20 -5 31 -12 30 -9 -2 -10 4 -3 21 5
13 6 27 3 30 -4 3 2 6 12 6 10 0 16 3 12 6 -3 3 -1 19 5 35 8 23 16 29 40 29
l31 0 -29 -27z m-214 -98 c7 -8 19 -15 26 -15 35 0 -4 -155 -57 -227 -49 -65
-63 -75 -56 -37 3 16 13 69 23 117 12 67 23 95 41 113 24 24 24 26 7 45 -9 10
-12 19 -7 19 6 0 16 -7 23 -15z m-230 -83 c26 -13 37 -27 45 -55 6 -22 15 -35
20 -30 5 4 4 1 -3 -8 -10 -14 -9 -26 4 -64 12 -36 13 -53 5 -69 -5 -12 -17
-68 -26 -125 -9 -58 -18 -108 -20 -112 -5 -7 -31 -176 -59 -374 -8 -55 -15
-122 -16 -149 0 -28 -3 -53 -5 -57 -3 -4 -7 -50 -11 -102 -3 -52 -9 -108 -13
-124 -7 -25 -8 -22 -15 27 -8 53 -9 54 -20 28 l-11 -26 -13 26 c-6 14 -12 34
-12 44 0 10 -4 26 -10 36 -14 24 -39 98 -55 162 -7 30 -19 69 -25 85 -26 64
-125 477 -140 580 -4 32 -3 57 4 68 9 15 7 21 -8 33 -19 13 -19 14 7 14 33 0
82 -49 108 -110 11 -25 27 -58 35 -74 8 -16 14 -52 15 -80 0 -45 2 -48 10 -26
18 43 23 119 9 135 -7 9 -10 19 -6 22 4 4 11 1 16 -7 6 -8 10 -10 10 -4 0 6
-7 17 -15 24 -17 14 -21 35 -5 25 6 -3 10 -1 10 5 0 7 -9 14 -20 17 -11 3 -20
10 -20 15 0 5 9 6 20 3 30 -10 24 10 -12 41 -21 17 -28 29 -20 32 16 5 -3 32
-24 32 -8 0 -12 10 -10 28 2 15 4 36 5 47 1 16 5 13 15 -11 13 -30 67 -61 86
-49 5 3 12 -5 15 -17 4 -13 18 -35 32 -50 14 -14 22 -31 19 -37 -4 -6 0 -21 8
-33 21 -29 21 -8 1 57 -9 31 -11 54 -5 64 7 12 9 8 10 -17 0 -29 3 -32 20 -27
15 5 20 2 20 -10 0 -10 12 -31 27 -49 l26 -31 -7 73 c-8 77 -31 146 -45 137
-5 -3 -7 5 -3 17 3 14 2 19 -6 14 -8 -5 -12 1 -12 17 0 42 15 46 70 19z m529
-155 c3 4 16 14 29 21 20 11 23 10 33 -15 6 -16 13 -40 16 -56 3 -15 10 -30
14 -33 5 -3 6 -10 3 -16 -4 -6 4 -19 17 -29 20 -15 21 -19 7 -19 -10 0 -18 4
-18 10 0 16 -28 0 -33 -20 -3 -13 1 -21 14 -25 30 -10 23 -28 -8 -22 -26 5
-26 4 -9 -9 17 -12 17 -14 3 -20 -10 -3 -17 -12 -17 -18 0 -7 -23 -37 -51 -67
-81 -85 -131 -141 -172 -189 -20 -25 -43 -52 -50 -60 -22 -26 -77 -116 -77
-128 0 -5 -4 -12 -8 -14 -7 -2 -59 -93 -113 -198 -23 -44 -59 -130 -59 -142
-1 -17 -28 -53 -36 -46 -8 9 34 458 62 658 35 248 45 304 57 315 7 7 8 6 3 -2
-11 -20 9 -15 29 7 17 19 19 19 31 2 9 -11 13 -13 14 -4 0 7 5 10 10 7 6 -3
10 1 10 9 0 9 5 16 10 16 6 0 10 -5 10 -11 0 -5 5 -7 10 -4 6 3 10 21 10 38 1
31 1 31 16 12 16 -20 16 -20 9 3 -3 12 -2 22 3 22 14 0 22 -37 22 -110 l0 -65
24 30 c13 16 22 33 19 37 -2 5 2 8 10 8 8 0 22 9 33 21 18 20 18 21 1 30 -10
6 -15 14 -12 19 4 6 14 5 25 -2 14 -9 22 -9 34 1 22 18 20 27 -6 36 -13 3 -18
9 -11 11 7 3 22 0 33 -6 31 -16 39 -2 12 19 -13 9 -20 20 -16 24 4 3 18 -3 32
-14 14 -11 28 -16 31 -12z"/>
</g>
</svg>
