<?xml version="1.0" standalone="no"?>
<!DOCTYPE svg PUBLIC "-//W3C//DTD SVG 20010904//EN"
 "http://www.w3.org/TR/2001/REC-SVG-20010904/DTD/svg10.dtd">
<svg version="1.0" xmlns="http://www.w3.org/2000/svg"
 width="232.000000pt" height="100.000000pt" viewBox="0 0 232.000000 100.000000"
 preserveAspectRatio="xMidYMid meet">
<metadata>
Created by potrace 1.12, written by Peter Selinger 2001-2015
</metadata>
<g transform="translate(0.000000,100.000000) scale(0.100000,-0.100000)"
fill="#000000" stroke="none">
<path d="M555 685 c-40 -21 -55 -43 -55 -78 0 -56 34 -87 113 -101 49 -9 70
-46 42 -76 -22 -24 -91 -27 -121 -5 -27 20 -44 18 -44 -5 0 -29 42 -52 98 -53
61 -2 96 16 117 60 29 62 -6 109 -95 128 -19 4 -41 12 -47 17 -18 14 -16 53 2
68 15 12 85 10 118 -4 14 -7 17 -3 17 17 0 26 1 26 -87 42 -16 3 -41 -2 -58
-10z"/>
<path d="M1830 534 c0 -152 1 -165 18 -162 13 2 18 15 20 56 2 28 7 52 11 52
5 0 27 -25 50 -55 32 -42 48 -55 68 -55 29 0 31 -3 -44 86 l-42 51 45 44 c24
24 44 47 44 51 0 22 -41 3 -80 -37 -24 -25 -47 -45 -50 -45 -3 0 -4 40 -2 90
3 85 2 90 -17 90 -20 0 -21 -5 -21 -166z"/>
<path d="M1150 685 c0 -3 -1 -74 -1 -157 l0 -153 90 -3 c86 -3 91 -2 91 18 0
18 -6 20 -70 20 l-70 0 0 140 c0 133 -1 140 -20 140 -11 0 -20 -2 -20 -5z"/>
<path d="M1393 613 c-25 -3 -33 -9 -33 -24 0 -18 5 -19 50 -13 34 4 55 3 65
-6 27 -23 16 -35 -47 -50 -48 -12 -66 -21 -77 -41 -16 -29 -10 -69 15 -93 18
-19 85 -21 103 -3 11 10 14 10 18 0 3 -7 13 -13 24 -13 17 0 19 8 19 96 0 52
-5 104 -10 114 -9 16 -73 43 -90 38 -3 -1 -20 -3 -37 -5z"/>
<path d="M1656 604 c-22 -13 -30 -13 -36 -4 -5 7 -15 10 -24 7 -14 -6 -16 -23
-14 -119 3 -103 5 -113 22 -113 17 0 19 7 17 87 l-2 88 36 17 c59 28 69 14 73
-101 2 -88 4 -96 22 -96 19 0 20 7 20 99 0 80 -3 103 -17 119 -24 29 -62 35
-97 16z"/>
<path d="M2075 611 c-18 -4 -31 -14 -33 -24 -3 -16 1 -18 41 -12 56 9 87 -1
87 -25 0 -14 -10 -20 -42 -25 -47 -8 -79 -22 -90 -39 -15 -22 -8 -83 10 -99
21 -19 73 -22 102 -7 13 7 21 7 25 0 3 -5 13 -10 21 -10 11 0 14 20 14 103 0
86 -3 106 -17 119 -22 19 -77 28 -118 19z"/>
<path d="M661 215 l1 -135 69 0 c37 0 79 5 93 12 76 34 88 184 19 238 -21 16
-41 20 -105 20 l-79 0 2 -135z m166 79 c23 -23 25 -31 21 -85 -5 -75 -21 -91
-92 -97 l-56 -4 0 106 0 106 50 0 c41 0 56 -5 77 -26z"/>
<path d="M950 260 c-11 -11 -20 -24 -20 -30 0 -15 26 -12 40 6 9 10 26 14 49
12 28 -2 37 -8 39 -24 3 -19 -3 -23 -49 -29 -78 -11 -114 -60 -71 -98 21 -20
74 -22 105 -6 16 9 22 9 25 0 2 -6 11 -11 19 -11 11 0 14 6 9 22 -3 13 -6 51
-6 85 0 76 -14 93 -76 93 -31 0 -50 -6 -64 -20z"/>
<path d="M1130 273 c0 -4 16 -49 35 -99 37 -99 37 -131 -2 -140 -28 -7 -26
-28 5 -32 28 -4 43 20 92 151 45 119 46 127 26 127 -9 0 -23 -26 -36 -67 -13
-38 -26 -71 -29 -76 -4 -4 -19 25 -33 65 -16 46 -31 74 -42 76 -9 2 -16 0 -16
-5z"/>
<path d="M1639 251 c-33 -34 -39 -83 -14 -130 16 -33 33 -41 81 -41 54 0 84
36 84 100 0 41 -5 56 -25 75 -35 36 -88 34 -126 -4z"/>
<path d="M1830 203 c0 -98 14 -123 69 -123 20 0 42 5 49 12 9 9 12 9 12 0 0
-7 7 -12 15 -12 12 0 15 18 15 100 0 82 -3 100 -15 100 -12 0 -15 -14 -15 -70
0 -57 -4 -74 -20 -90 -23 -23 -30 -24 -53 -7 -12 9 -17 31 -19 87 -3 62 -6 75
-20 78 -16 3 -18 -6 -18 -75z"/>
<path d="M2180 260 c-37 -37 -18 -75 45 -91 56 -14 72 -31 50 -53 -22 -22 -52
-20 -72 4 -20 23 -43 26 -43 7 0 -46 102 -65 140 -27 37 37 17 81 -45 96 -47
11 -65 23 -59 39 8 20 73 20 80 0 8 -19 34 -20 34 -1 0 43 -95 61 -130 26z"/>
</g>
</svg>
