<?xml version="1.0" standalone="no"?>
<!DOCTYPE svg PUBLIC "-//W3C//DTD SVG 20010904//EN"
 "http://www.w3.org/TR/2001/REC-SVG-20010904/DTD/svg10.dtd">
<svg version="1.0" xmlns="http://www.w3.org/2000/svg"
 width="100.000000pt" height="100.000000pt" viewBox="0 0 100.000000 100.000000"
 preserveAspectRatio="xMidYMid meet">
<metadata>
Created by potrace 1.12, written by Peter Selinger 2001-2015
</metadata>
<g transform="translate(0.000000,100.000000) scale(0.100000,-0.100000)"
fill="#000000" stroke="none">
<path d="M424 934 c-34 -17 -64 -61 -64 -96 0 -18 -12 -29 -56 -52 -180 -94
-223 -313 -93 -477 l31 -39 -32 -37 c-28 -31 -31 -42 -27 -74 4 -29 0 -45 -14
-63 -10 -13 -19 -31 -19 -40 0 -14 35 -16 330 -16 323 0 330 0 330 20 0 11 -8
29 -17 40 -12 13 -16 33 -14 65 2 39 -1 48 -30 74 l-32 30 33 37 c54 62 75
118 75 204 0 62 -5 85 -28 132 -31 64 -87 118 -152 150 -34 17 -45 28 -45 45
0 40 -29 84 -65 99 -43 18 -72 17 -111 -2z m129 -46 c22 -23 28 -37 23 -58 -5
-25 -1 -29 42 -46 65 -24 154 -114 175 -178 35 -103 15 -199 -59 -286 -35 -41
-42 -55 -33 -66 9 -11 6 -14 -20 -14 -67 0 -96 -79 -44 -120 19 -15 36 -20 55
-16 33 6 84 -10 92 -30 5 -12 -40 -14 -307 -14 l-311 0 21 21 c14 14 33 21 59
21 57 0 91 16 104 48 20 47 -16 90 -76 90 -23 0 -25 2 -14 15 11 13 8 22 -22
53 -61 64 -83 116 -82 202 0 61 5 85 27 126 31 62 102 127 163 150 41 16 44
19 44 54 0 39 17 62 60 79 36 14 71 3 103 -31z"/>
<path d="M429 884 c-61 -65 36 -153 104 -94 45 39 10 112 -54 114 -18 1 -38
-7 -50 -20z"/>
<path d="M362 714 c-177 -88 -175 -312 3 -407 30 -16 58 -22 115 -22 66 0 82
4 130 31 167 94 159 320 -15 400 -72 34 -163 33 -233 -2z m236 -20 c5 -9 13
-14 17 -12 5 1 9 -7 10 -20 2 -22 2 -22 -17 -2 -26 28 -32 25 -11 -7 10 -15
12 -24 6 -20 -21 13 -14 -9 9 -29 19 -17 21 -17 15 -1 -4 11 0 21 13 29 14 9
16 16 8 25 -6 7 -8 13 -5 13 3 0 16 -14 28 -32 13 -17 17 -28 9 -23 -10 6 -12
3 -8 -13 5 -17 2 -20 -19 -16 -20 4 -24 2 -19 -11 3 -9 6 -22 6 -28 0 -8 4 -7
9 2 5 7 14 10 20 7 15 -10 14 -26 -3 -26 -7 0 -16 -11 -18 -24 -4 -21 -2 -23
12 -14 24 15 50 3 50 -22 0 -12 -4 -19 -9 -15 -6 3 -15 -3 -20 -14 -16 -29
-13 -39 4 -17 8 11 15 16 15 11 0 -30 -121 -138 -137 -121 -3 3 -1 6 5 6 7 0
12 5 12 11 0 5 -4 8 -9 4 -6 -3 -8 4 -6 15 3 15 -1 20 -16 20 -13 0 -19 -6
-17 -17 2 -10 -4 -19 -14 -21 -11 -2 -18 3 -18 12 0 9 -9 16 -21 16 -13 0 -20
-6 -18 -17 5 -51 -26 -60 -53 -16 -14 24 -18 26 -23 11 -6 -15 -11 -16 -28 -7
-29 15 -66 50 -79 73 -8 14 -7 17 3 11 9 -6 11 -3 6 8 -4 12 -1 14 16 11 38
-9 67 -12 67 -8 0 3 -7 16 -16 29 -16 25 -16 77 0 120 8 20 7 20 -8 1 -18 -22
-21 -82 -6 -120 5 -14 6 -26 1 -26 -4 0 -13 15 -19 33 -5 17 -10 24 -11 15 -1
-10 -5 -18 -10 -18 -5 0 -18 -8 -27 -17 -17 -17 -18 -17 -11 0 3 9 2 17 -3 17
-16 0 -11 27 6 34 9 3 12 11 8 18 -6 10 -3 9 9 0 20 -17 37 -7 36 21 0 12 -3
16 -6 10 -2 -7 -11 -13 -19 -13 -8 0 -11 6 -8 15 4 8 15 15 25 15 10 0 19 2
19 4 0 2 3 11 6 19 4 11 0 15 -13 12 -10 -1 -17 -8 -16 -13 2 -6 -4 -9 -13 -5
-11 4 -12 8 -4 13 8 5 9 10 2 14 -6 4 -15 -2 -21 -11 -6 -10 -11 -14 -11 -10
-1 23 41 64 62 62 13 -1 31 4 40 12 9 8 22 12 29 7 8 -5 10 -3 5 5 -5 7 -15 9
-25 6 -9 -4 -25 -8 -36 -10 -18 -4 -18 -2 3 15 17 14 29 17 41 10 12 -6 22 -5
31 3 10 10 11 9 4 -3 -13 -22 -14 -40 -2 -40 5 0 12 9 15 20 6 23 19 25 38 6
17 -16 9 -26 -20 -26 -12 0 -30 -7 -41 -16 -19 -15 -19 -16 1 -9 46 16 57 15
20 -2 -38 -19 -39 -20 -36 -65 1 -28 -2 -49 -10 -54 -9 -5 -11 5 -6 42 6 46 6
48 -8 24 -25 -44 -19 -95 17 -137 18 -21 26 -32 18 -25 -18 15 -38 16 -23 1 6
-6 9 -17 7 -24 -3 -7 4 -19 15 -27 12 -8 18 -17 15 -20 -3 -4 4 -9 16 -13 12
-4 24 -4 27 -1 4 3 -1 6 -10 6 -10 0 -17 8 -17 20 0 18 -10 25 -32 21 -5 0 -8
4 -8 10 0 6 8 7 23 2 20 -7 102 -8 145 -2 10 2 19 9 19 16 0 15 -13 17 -22 3
-3 -5 -14 -10 -23 -10 -11 0 -7 6 12 15 15 8 32 13 36 10 12 -7 48 41 55 74 4
17 0 42 -9 62 l-15 34 5 -30 c4 -29 4 -29 -6 -5 -6 14 -21 36 -33 50 l-22 25
28 -24 c15 -14 27 -20 27 -13 0 16 -51 53 -82 59 -34 7 -40 42 -8 44 33 2 38
4 46 12 12 11 22 8 32 -9z m-118 -138 c0 -27 15 -42 25 -26 3 5 22 10 41 10
24 0 33 4 28 12 -4 7 -3 8 5 4 11 -7 9 -94 -3 -114 -9 -15 -54 -1 -59 18 -6
25 -57 15 -57 -11 0 -11 -4 -19 -10 -19 -5 0 -10 9 -10 19 0 12 -8 21 -22 23
-32 5 -33 24 0 39 21 9 28 18 24 31 -2 10 -12 18 -21 19 -12 0 -11 2 4 9 38
16 55 12 55 -14z"/>
</g>
</svg>
