<?xml version="1.0" standalone="no"?>
<!DOCTYPE svg PUBLIC "-//W3C//DTD SVG 20010904//EN"
 "http://www.w3.org/TR/2001/REC-SVG-20010904/DTD/svg10.dtd">
<svg version="1.0" xmlns="http://www.w3.org/2000/svg"
 width="194.000000pt" height="100.000000pt" viewBox="0 0 194.000000 100.000000"
 preserveAspectRatio="xMidYMid meet">
<metadata>
Created by potrace 1.12, written by Peter Selinger 2001-2015
</metadata>
<g transform="translate(0.000000,100.000000) scale(0.100000,-0.100000)"
fill="#000000" stroke="none">
<path d="M754 591 c3 -5 7 -83 9 -173 2 -91 7 -170 11 -176 4 -7 21 -12 38
-12 22 0 29 4 25 15 -4 8 -7 79 -8 157 -1 193 -3 198 -46 198 -19 0 -32 -4
-29 -9z"/>
<path d="M1662 498 c-25 -7 -32 -14 -32 -34 l0 -25 30 23 c35 25 63 17 68 -20
3 -17 -9 -27 -57 -51 -65 -33 -81 -53 -81 -100 0 -50 61 -77 112 -50 14 8 23
8 31 0 6 -6 24 -11 39 -11 25 0 27 2 18 19 -5 11 -10 63 -10 115 0 84 -3 98
-21 115 -26 24 -55 30 -97 19z"/>
<path d="M132 482 c-29 -29 -17 -77 27 -110 53 -40 61 -49 61 -69 0 -41 -56
-58 -90 -28 -15 14 -17 13 -15 -7 3 -46 120 -44 145 2 6 10 10 32 10 49 0 25
-9 38 -54 71 -30 23 -56 51 -58 63 -4 20 0 23 28 25 22 2 40 -4 54 -18 20 -20
20 -20 20 0 0 40 -94 56 -128 22z"/>
</g>
</svg>
